<?xml version="1.0" encoding="utf-8" standalone="no"?>
<!DOCTYPE svg PUBLIC "-//W3C//DTD SVG 1.1//EN"
  "http://www.w3.org/Graphics/SVG/1.1/DTD/svg11.dtd">
<svg xmlns:xlink="http://www.w3.org/1999/xlink" width="460.8pt" height="345.6pt" viewBox="0 0 460.8 345.6" xmlns="http://www.w3.org/2000/svg" version="1.1">
 <metadata>
  <rdf:RDF xmlns:dc="http://purl.org/dc/elements/1.1/" xmlns:cc="http://creativecommons.org/ns#" xmlns:rdf="http://www.w3.org/1999/02/22-rdf-syntax-ns#">
   <cc:Work>
    <dc:type rdf:resource="http://purl.org/dc/dcmitype/StillImage"/>
    <dc:date>2023-06-03T20:49:09.558789</dc:date>
    <dc:format>image/svg+xml</dc:format>
    <dc:creator>
     <cc:Agent>
      <dc:title>Matplotlib v3.7.1, https://matplotlib.org/</dc:title>
     </cc:Agent>
    </dc:creator>
   </cc:Work>
  </rdf:RDF>
 </metadata>
 <defs>
  <style type="text/css">*{stroke-linejoin: round; stroke-linecap: butt}</style>
 </defs>
 <g id="figure_1">
  <g id="patch_1">
   <path d="M 0 345.6 
L 460.8 345.6 
L 460.8 0 
L 0 0 
z
" style="fill: #ffffff"/>
  </g>
  <g id="axes_1">
   <g id="patch_2">
    <path d="M 57.6 307.584 
L 414.72 307.584 
L 414.72 41.472 
L 57.6 41.472 
z
" style="fill: #eaeaf2"/>
   </g>
   <g id="matplotlib.axis_1">
    <g id="xtick_1">
     <g id="line2d_1">
      <path d="M 73.832727 307.584 
L 73.832727 41.472 
" clip-path="url(#p4095605774)" style="fill: none; stroke: #ffffff; stroke-width: 0.8; stroke-linecap: round"/>
     </g>
     <g id="text_1">
      <!-- 2 -->
      <g style="fill: #262626" transform="translate(71.052259 321.741812) scale(0.1 -0.1)">
       <defs>
        <path id="ArialMT-32" d="M 3222 541 
L 3222 0 
L 194 0 
Q 188 203 259 391 
Q 375 700 629 1000 
Q 884 1300 1366 1694 
Q 2113 2306 2375 2664 
Q 2638 3022 2638 3341 
Q 2638 3675 2398 3904 
Q 2159 4134 1775 4134 
Q 1369 4134 1125 3890 
Q 881 3647 878 3216 
L 300 3275 
Q 359 3922 746 4261 
Q 1134 4600 1788 4600 
Q 2447 4600 2831 4234 
Q 3216 3869 3216 3328 
Q 3216 3053 3103 2787 
Q 2991 2522 2730 2228 
Q 2469 1934 1863 1422 
Q 1356 997 1212 845 
Q 1069 694 975 541 
L 3222 541 
z
" transform="scale(0.015625)"/>
       </defs>
       <use xlink:href="#ArialMT-32"/>
      </g>
     </g>
    </g>
    <g id="xtick_2">
     <g id="line2d_2">
      <path d="M 114.414545 307.584 
L 114.414545 41.472 
" clip-path="url(#p4095605774)" style="fill: none; stroke: #ffffff; stroke-width: 0.8; stroke-linecap: round"/>
     </g>
     <g id="text_2">
      <!-- 3 -->
      <g style="fill: #262626" transform="translate(111.634077 321.741812) scale(0.1 -0.1)">
       <defs>
        <path id="ArialMT-33" d="M 269 1209 
L 831 1284 
Q 928 806 1161 595 
Q 1394 384 1728 384 
Q 2125 384 2398 659 
Q 2672 934 2672 1341 
Q 2672 1728 2419 1979 
Q 2166 2231 1775 2231 
Q 1616 2231 1378 2169 
L 1441 2663 
Q 1497 2656 1531 2656 
Q 1891 2656 2178 2843 
Q 2466 3031 2466 3422 
Q 2466 3731 2256 3934 
Q 2047 4138 1716 4138 
Q 1388 4138 1169 3931 
Q 950 3725 888 3313 
L 325 3413 
Q 428 3978 793 4289 
Q 1159 4600 1703 4600 
Q 2078 4600 2393 4439 
Q 2709 4278 2876 4000 
Q 3044 3722 3044 3409 
Q 3044 3113 2884 2869 
Q 2725 2625 2413 2481 
Q 2819 2388 3044 2092 
Q 3269 1797 3269 1353 
Q 3269 753 2831 336 
Q 2394 -81 1725 -81 
Q 1122 -81 723 278 
Q 325 638 269 1209 
z
" transform="scale(0.015625)"/>
       </defs>
       <use xlink:href="#ArialMT-33"/>
      </g>
     </g>
    </g>
    <g id="xtick_3">
     <g id="line2d_3">
      <path d="M 154.996364 307.584 
L 154.996364 41.472 
" clip-path="url(#p4095605774)" style="fill: none; stroke: #ffffff; stroke-width: 0.8; stroke-linecap: round"/>
     </g>
     <g id="text_3">
      <!-- 4 -->
      <g style="fill: #262626" transform="translate(152.215895 321.741812) scale(0.1 -0.1)">
       <defs>
        <path id="ArialMT-34" d="M 2069 0 
L 2069 1097 
L 81 1097 
L 81 1613 
L 2172 4581 
L 2631 4581 
L 2631 1613 
L 3250 1613 
L 3250 1097 
L 2631 1097 
L 2631 0 
L 2069 0 
z
M 2069 1613 
L 2069 3678 
L 634 1613 
L 2069 1613 
z
" transform="scale(0.015625)"/>
       </defs>
       <use xlink:href="#ArialMT-34"/>
      </g>
     </g>
    </g>
    <g id="xtick_4">
     <g id="line2d_4">
      <path d="M 195.578182 307.584 
L 195.578182 41.472 
" clip-path="url(#p4095605774)" style="fill: none; stroke: #ffffff; stroke-width: 0.8; stroke-linecap: round"/>
     </g>
     <g id="text_4">
      <!-- 5 -->
      <g style="fill: #262626" transform="translate(192.797713 321.741812) scale(0.1 -0.1)">
       <defs>
        <path id="ArialMT-35" d="M 266 1200 
L 856 1250 
Q 922 819 1161 601 
Q 1400 384 1738 384 
Q 2144 384 2425 690 
Q 2706 997 2706 1503 
Q 2706 1984 2436 2262 
Q 2166 2541 1728 2541 
Q 1456 2541 1237 2417 
Q 1019 2294 894 2097 
L 366 2166 
L 809 4519 
L 3088 4519 
L 3088 3981 
L 1259 3981 
L 1013 2750 
Q 1425 3038 1878 3038 
Q 2478 3038 2890 2622 
Q 3303 2206 3303 1553 
Q 3303 931 2941 478 
Q 2500 -78 1738 -78 
Q 1113 -78 717 272 
Q 322 622 266 1200 
z
" transform="scale(0.015625)"/>
       </defs>
       <use xlink:href="#ArialMT-35"/>
      </g>
     </g>
    </g>
    <g id="xtick_5">
     <g id="line2d_5">
      <path d="M 236.16 307.584 
L 236.16 41.472 
" clip-path="url(#p4095605774)" style="fill: none; stroke: #ffffff; stroke-width: 0.8; stroke-linecap: round"/>
     </g>
     <g id="text_5">
      <!-- 6 -->
      <g style="fill: #262626" transform="translate(233.379531 321.741812) scale(0.1 -0.1)">
       <defs>
        <path id="ArialMT-36" d="M 3184 3459 
L 2625 3416 
Q 2550 3747 2413 3897 
Q 2184 4138 1850 4138 
Q 1581 4138 1378 3988 
Q 1113 3794 959 3422 
Q 806 3050 800 2363 
Q 1003 2672 1297 2822 
Q 1591 2972 1913 2972 
Q 2475 2972 2870 2558 
Q 3266 2144 3266 1488 
Q 3266 1056 3080 686 
Q 2894 316 2569 119 
Q 2244 -78 1831 -78 
Q 1128 -78 684 439 
Q 241 956 241 2144 
Q 241 3472 731 4075 
Q 1159 4600 1884 4600 
Q 2425 4600 2770 4297 
Q 3116 3994 3184 3459 
z
M 888 1484 
Q 888 1194 1011 928 
Q 1134 663 1356 523 
Q 1578 384 1822 384 
Q 2178 384 2434 671 
Q 2691 959 2691 1453 
Q 2691 1928 2437 2201 
Q 2184 2475 1800 2475 
Q 1419 2475 1153 2201 
Q 888 1928 888 1484 
z
" transform="scale(0.015625)"/>
       </defs>
       <use xlink:href="#ArialMT-36"/>
      </g>
     </g>
    </g>
    <g id="xtick_6">
     <g id="line2d_6">
      <path d="M 276.741818 307.584 
L 276.741818 41.472 
" clip-path="url(#p4095605774)" style="fill: none; stroke: #ffffff; stroke-width: 0.8; stroke-linecap: round"/>
     </g>
     <g id="text_6">
      <!-- 7 -->
      <g style="fill: #262626" transform="translate(273.961349 321.741812) scale(0.1 -0.1)">
       <defs>
        <path id="ArialMT-37" d="M 303 3981 
L 303 4522 
L 3269 4522 
L 3269 4084 
Q 2831 3619 2401 2847 
Q 1972 2075 1738 1259 
Q 1569 684 1522 0 
L 944 0 
Q 953 541 1156 1306 
Q 1359 2072 1739 2783 
Q 2119 3494 2547 3981 
L 303 3981 
z
" transform="scale(0.015625)"/>
       </defs>
       <use xlink:href="#ArialMT-37"/>
      </g>
     </g>
    </g>
    <g id="xtick_7">
     <g id="line2d_7">
      <path d="M 317.323636 307.584 
L 317.323636 41.472 
" clip-path="url(#p4095605774)" style="fill: none; stroke: #ffffff; stroke-width: 0.8; stroke-linecap: round"/>
     </g>
     <g id="text_7">
      <!-- 8 -->
      <g style="fill: #262626" transform="translate(314.543168 321.741812) scale(0.1 -0.1)">
       <defs>
        <path id="ArialMT-38" d="M 1131 2484 
Q 781 2613 612 2850 
Q 444 3088 444 3419 
Q 444 3919 803 4259 
Q 1163 4600 1759 4600 
Q 2359 4600 2725 4251 
Q 3091 3903 3091 3403 
Q 3091 3084 2923 2848 
Q 2756 2613 2416 2484 
Q 2838 2347 3058 2040 
Q 3278 1734 3278 1309 
Q 3278 722 2862 322 
Q 2447 -78 1769 -78 
Q 1091 -78 675 323 
Q 259 725 259 1325 
Q 259 1772 486 2073 
Q 713 2375 1131 2484 
z
M 1019 3438 
Q 1019 3113 1228 2906 
Q 1438 2700 1772 2700 
Q 2097 2700 2305 2904 
Q 2513 3109 2513 3406 
Q 2513 3716 2298 3927 
Q 2084 4138 1766 4138 
Q 1444 4138 1231 3931 
Q 1019 3725 1019 3438 
z
M 838 1322 
Q 838 1081 952 856 
Q 1066 631 1291 507 
Q 1516 384 1775 384 
Q 2178 384 2440 643 
Q 2703 903 2703 1303 
Q 2703 1709 2433 1975 
Q 2163 2241 1756 2241 
Q 1359 2241 1098 1978 
Q 838 1716 838 1322 
z
" transform="scale(0.015625)"/>
       </defs>
       <use xlink:href="#ArialMT-38"/>
      </g>
     </g>
    </g>
    <g id="xtick_8">
     <g id="line2d_8">
      <path d="M 357.905455 307.584 
L 357.905455 41.472 
" clip-path="url(#p4095605774)" style="fill: none; stroke: #ffffff; stroke-width: 0.8; stroke-linecap: round"/>
     </g>
     <g id="text_8">
      <!-- 9 -->
      <g style="fill: #262626" transform="translate(355.124986 321.741812) scale(0.1 -0.1)">
       <defs>
        <path id="ArialMT-39" d="M 350 1059 
L 891 1109 
Q 959 728 1153 556 
Q 1347 384 1650 384 
Q 1909 384 2104 503 
Q 2300 622 2425 820 
Q 2550 1019 2634 1356 
Q 2719 1694 2719 2044 
Q 2719 2081 2716 2156 
Q 2547 1888 2255 1720 
Q 1963 1553 1622 1553 
Q 1053 1553 659 1965 
Q 266 2378 266 3053 
Q 266 3750 677 4175 
Q 1088 4600 1706 4600 
Q 2153 4600 2523 4359 
Q 2894 4119 3086 3673 
Q 3278 3228 3278 2384 
Q 3278 1506 3087 986 
Q 2897 466 2520 194 
Q 2144 -78 1638 -78 
Q 1100 -78 759 220 
Q 419 519 350 1059 
z
M 2653 3081 
Q 2653 3566 2395 3850 
Q 2138 4134 1775 4134 
Q 1400 4134 1122 3828 
Q 844 3522 844 3034 
Q 844 2597 1108 2323 
Q 1372 2050 1759 2050 
Q 2150 2050 2401 2323 
Q 2653 2597 2653 3081 
z
" transform="scale(0.015625)"/>
       </defs>
       <use xlink:href="#ArialMT-39"/>
      </g>
     </g>
    </g>
    <g id="xtick_9">
     <g id="line2d_9">
      <path d="M 398.487273 307.584 
L 398.487273 41.472 
" clip-path="url(#p4095605774)" style="fill: none; stroke: #ffffff; stroke-width: 0.8; stroke-linecap: round"/>
     </g>
     <g id="text_9">
      <!-- 10 -->
      <g style="fill: #262626" transform="translate(392.926335 321.741812) scale(0.1 -0.1)">
       <defs>
        <path id="ArialMT-31" d="M 2384 0 
L 1822 0 
L 1822 3584 
Q 1619 3391 1289 3197 
Q 959 3003 697 2906 
L 697 3450 
Q 1169 3672 1522 3987 
Q 1875 4303 2022 4600 
L 2384 4600 
L 2384 0 
z
" transform="scale(0.015625)"/>
        <path id="ArialMT-30" d="M 266 2259 
Q 266 3072 433 3567 
Q 600 4063 929 4331 
Q 1259 4600 1759 4600 
Q 2128 4600 2406 4451 
Q 2684 4303 2865 4023 
Q 3047 3744 3150 3342 
Q 3253 2941 3253 2259 
Q 3253 1453 3087 958 
Q 2922 463 2592 192 
Q 2263 -78 1759 -78 
Q 1097 -78 719 397 
Q 266 969 266 2259 
z
M 844 2259 
Q 844 1131 1108 757 
Q 1372 384 1759 384 
Q 2147 384 2411 759 
Q 2675 1134 2675 2259 
Q 2675 3391 2411 3762 
Q 2147 4134 1753 4134 
Q 1366 4134 1134 3806 
Q 844 3388 844 2259 
z
" transform="scale(0.015625)"/>
       </defs>
       <use xlink:href="#ArialMT-31"/>
       <use xlink:href="#ArialMT-30" x="55.615234"/>
      </g>
     </g>
    </g>
    <g id="text_10">
     <!-- Depth -->
     <g style="fill: #262626" transform="translate(222.818594 334.887125) scale(0.1 -0.1)">
      <defs>
       <path id="ArialMT-44" d="M 494 0 
L 494 4581 
L 2072 4581 
Q 2606 4581 2888 4516 
Q 3281 4425 3559 4188 
Q 3922 3881 4101 3404 
Q 4281 2928 4281 2316 
Q 4281 1794 4159 1391 
Q 4038 988 3847 723 
Q 3656 459 3429 307 
Q 3203 156 2883 78 
Q 2563 0 2147 0 
L 494 0 
z
M 1100 541 
L 2078 541 
Q 2531 541 2789 625 
Q 3047 709 3200 863 
Q 3416 1078 3536 1442 
Q 3656 1806 3656 2325 
Q 3656 3044 3420 3430 
Q 3184 3816 2847 3947 
Q 2603 4041 2063 4041 
L 1100 4041 
L 1100 541 
z
" transform="scale(0.015625)"/>
       <path id="ArialMT-65" d="M 2694 1069 
L 3275 997 
Q 3138 488 2766 206 
Q 2394 -75 1816 -75 
Q 1088 -75 661 373 
Q 234 822 234 1631 
Q 234 2469 665 2931 
Q 1097 3394 1784 3394 
Q 2450 3394 2872 2941 
Q 3294 2488 3294 1666 
Q 3294 1616 3291 1516 
L 816 1516 
Q 847 969 1125 678 
Q 1403 388 1819 388 
Q 2128 388 2347 550 
Q 2566 713 2694 1069 
z
M 847 1978 
L 2700 1978 
Q 2663 2397 2488 2606 
Q 2219 2931 1791 2931 
Q 1403 2931 1139 2672 
Q 875 2413 847 1978 
z
" transform="scale(0.015625)"/>
       <path id="ArialMT-70" d="M 422 -1272 
L 422 3319 
L 934 3319 
L 934 2888 
Q 1116 3141 1344 3267 
Q 1572 3394 1897 3394 
Q 2322 3394 2647 3175 
Q 2972 2956 3137 2557 
Q 3303 2159 3303 1684 
Q 3303 1175 3120 767 
Q 2938 359 2589 142 
Q 2241 -75 1856 -75 
Q 1575 -75 1351 44 
Q 1128 163 984 344 
L 984 -1272 
L 422 -1272 
z
M 931 1641 
Q 931 1000 1190 694 
Q 1450 388 1819 388 
Q 2194 388 2461 705 
Q 2728 1022 2728 1688 
Q 2728 2322 2467 2637 
Q 2206 2953 1844 2953 
Q 1484 2953 1207 2617 
Q 931 2281 931 1641 
z
" transform="scale(0.015625)"/>
       <path id="ArialMT-74" d="M 1650 503 
L 1731 6 
Q 1494 -44 1306 -44 
Q 1000 -44 831 53 
Q 663 150 594 308 
Q 525 466 525 972 
L 525 2881 
L 113 2881 
L 113 3319 
L 525 3319 
L 525 4141 
L 1084 4478 
L 1084 3319 
L 1650 3319 
L 1650 2881 
L 1084 2881 
L 1084 941 
Q 1084 700 1114 631 
Q 1144 563 1211 522 
Q 1278 481 1403 481 
Q 1497 481 1650 503 
z
" transform="scale(0.015625)"/>
       <path id="ArialMT-68" d="M 422 0 
L 422 4581 
L 984 4581 
L 984 2938 
Q 1378 3394 1978 3394 
Q 2347 3394 2619 3248 
Q 2891 3103 3008 2847 
Q 3125 2591 3125 2103 
L 3125 0 
L 2563 0 
L 2563 2103 
Q 2563 2525 2380 2717 
Q 2197 2909 1863 2909 
Q 1613 2909 1392 2779 
Q 1172 2650 1078 2428 
Q 984 2206 984 1816 
L 984 0 
L 422 0 
z
" transform="scale(0.015625)"/>
      </defs>
      <use xlink:href="#ArialMT-44"/>
      <use xlink:href="#ArialMT-65" x="72.216797"/>
      <use xlink:href="#ArialMT-70" x="127.832031"/>
      <use xlink:href="#ArialMT-74" x="183.447266"/>
      <use xlink:href="#ArialMT-68" x="211.230469"/>
     </g>
    </g>
   </g>
   <g id="matplotlib.axis_2">
    <g id="ytick_1">
     <g id="line2d_10">
      <path d="M 57.6 302.571178 
L 414.72 302.571178 
" clip-path="url(#p4095605774)" style="fill: none; stroke: #ffffff; stroke-width: 0.8; stroke-linecap: round"/>
     </g>
     <g id="text_11">
      <!-- $\mathdefault{10^{-4}}$ -->
      <g style="fill: #262626" transform="translate(30.8 307.677428) scale(0.1 -0.1)">
       <defs>
        <path id="ArialMT-2212" d="M 3381 1997 
L 356 1997 
L 356 2522 
L 3381 2522 
L 3381 1997 
z
" transform="scale(0.015625)"/>
       </defs>
       <use xlink:href="#ArialMT-31" transform="translate(0 0.201563)"/>
       <use xlink:href="#ArialMT-30" transform="translate(55.615234 0.201563)"/>
       <use xlink:href="#ArialMT-2212" transform="translate(112.972813 69.895313) scale(0.7)"/>
       <use xlink:href="#ArialMT-34" transform="translate(153.851719 69.895313) scale(0.7)"/>
      </g>
     </g>
    </g>
    <g id="ytick_2">
     <g id="line2d_11">
      <path d="M 57.6 256.844333 
L 414.72 256.844333 
" clip-path="url(#p4095605774)" style="fill: none; stroke: #ffffff; stroke-width: 0.8; stroke-linecap: round"/>
     </g>
     <g id="text_12">
      <!-- $\mathdefault{10^{-3}}$ -->
      <g style="fill: #262626" transform="translate(30.8 262.000583) scale(0.1 -0.1)">
       <use xlink:href="#ArialMT-31" transform="translate(0 0.99375)"/>
       <use xlink:href="#ArialMT-30" transform="translate(55.615234 0.99375)"/>
       <use xlink:href="#ArialMT-2212" transform="translate(112.972813 70.6875) scale(0.7)"/>
       <use xlink:href="#ArialMT-33" transform="translate(153.851719 70.6875) scale(0.7)"/>
      </g>
     </g>
    </g>
    <g id="ytick_3">
     <g id="line2d_12">
      <path d="M 57.6 211.117489 
L 414.72 211.117489 
" clip-path="url(#p4095605774)" style="fill: none; stroke: #ffffff; stroke-width: 0.8; stroke-linecap: round"/>
     </g>
     <g id="text_13">
      <!-- $\mathdefault{10^{-2}}$ -->
      <g style="fill: #262626" transform="translate(30.8 216.273739) scale(0.1 -0.1)">
       <use xlink:href="#ArialMT-31" transform="translate(0 0.99375)"/>
       <use xlink:href="#ArialMT-30" transform="translate(55.615234 0.99375)"/>
       <use xlink:href="#ArialMT-2212" transform="translate(112.972813 70.6875) scale(0.7)"/>
       <use xlink:href="#ArialMT-32" transform="translate(153.851719 70.6875) scale(0.7)"/>
      </g>
     </g>
    </g>
    <g id="ytick_4">
     <g id="line2d_13">
      <path d="M 57.6 165.390644 
L 414.72 165.390644 
" clip-path="url(#p4095605774)" style="fill: none; stroke: #ffffff; stroke-width: 0.8; stroke-linecap: round"/>
     </g>
     <g id="text_14">
      <!-- $\mathdefault{10^{-1}}$ -->
      <g style="fill: #262626" transform="translate(30.8 170.546894) scale(0.1 -0.1)">
       <use xlink:href="#ArialMT-31" transform="translate(0 0.99375)"/>
       <use xlink:href="#ArialMT-30" transform="translate(55.615234 0.99375)"/>
       <use xlink:href="#ArialMT-2212" transform="translate(112.972813 70.6875) scale(0.7)"/>
       <use xlink:href="#ArialMT-31" transform="translate(153.851719 70.6875) scale(0.7)"/>
      </g>
     </g>
    </g>
    <g id="ytick_5">
     <g id="line2d_14">
      <path d="M 57.6 119.6638 
L 414.72 119.6638 
" clip-path="url(#p4095605774)" style="fill: none; stroke: #ffffff; stroke-width: 0.8; stroke-linecap: round"/>
     </g>
     <g id="text_15">
      <!-- $\mathdefault{10^{0}}$ -->
      <g style="fill: #262626" transform="translate(34.9 124.82005) scale(0.1 -0.1)">
       <use xlink:href="#ArialMT-31" transform="translate(0 0.99375)"/>
       <use xlink:href="#ArialMT-30" transform="translate(55.615234 0.99375)"/>
       <use xlink:href="#ArialMT-30" transform="translate(112.972813 70.6875) scale(0.7)"/>
      </g>
     </g>
    </g>
    <g id="ytick_6">
     <g id="line2d_15">
      <path d="M 57.6 73.936955 
L 414.72 73.936955 
" clip-path="url(#p4095605774)" style="fill: none; stroke: #ffffff; stroke-width: 0.8; stroke-linecap: round"/>
     </g>
     <g id="text_16">
      <!-- $\mathdefault{10^{1}}$ -->
      <g style="fill: #262626" transform="translate(34.9 79.093205) scale(0.1 -0.1)">
       <use xlink:href="#ArialMT-31" transform="translate(0 0.99375)"/>
       <use xlink:href="#ArialMT-30" transform="translate(55.615234 0.99375)"/>
       <use xlink:href="#ArialMT-31" transform="translate(112.972813 70.6875) scale(0.7)"/>
      </g>
     </g>
    </g>
    <g id="ytick_7"/>
    <g id="ytick_8"/>
    <g id="ytick_9"/>
    <g id="ytick_10"/>
    <g id="ytick_11"/>
    <g id="ytick_12"/>
    <g id="ytick_13"/>
    <g id="ytick_14"/>
    <g id="ytick_15"/>
    <g id="ytick_16"/>
    <g id="ytick_17"/>
    <g id="ytick_18"/>
    <g id="ytick_19"/>
    <g id="ytick_20"/>
    <g id="ytick_21"/>
    <g id="ytick_22"/>
    <g id="ytick_23"/>
    <g id="ytick_24"/>
    <g id="ytick_25"/>
    <g id="ytick_26"/>
    <g id="ytick_27"/>
    <g id="ytick_28"/>
    <g id="ytick_29"/>
    <g id="ytick_30"/>
    <g id="ytick_31"/>
    <g id="ytick_32"/>
    <g id="ytick_33"/>
    <g id="ytick_34"/>
    <g id="ytick_35"/>
    <g id="ytick_36"/>
    <g id="ytick_37"/>
    <g id="ytick_38"/>
    <g id="ytick_39"/>
    <g id="ytick_40"/>
    <g id="ytick_41"/>
    <g id="ytick_42"/>
    <g id="ytick_43"/>
    <g id="ytick_44"/>
    <g id="ytick_45"/>
    <g id="ytick_46"/>
    <g id="ytick_47"/>
    <g id="ytick_48"/>
    <g id="ytick_49"/>
    <g id="ytick_50"/>
    <g id="ytick_51"/>
    <g id="ytick_52"/>
    <g id="text_17">
     <!-- Training time (s) -->
     <g style="fill: #262626" transform="translate(24.695312 210.456125) rotate(-90) scale(0.1 -0.1)">
      <defs>
       <path id="ArialMT-54" d="M 1659 0 
L 1659 4041 
L 150 4041 
L 150 4581 
L 3781 4581 
L 3781 4041 
L 2266 4041 
L 2266 0 
L 1659 0 
z
" transform="scale(0.015625)"/>
       <path id="ArialMT-72" d="M 416 0 
L 416 3319 
L 922 3319 
L 922 2816 
Q 1116 3169 1280 3281 
Q 1444 3394 1641 3394 
Q 1925 3394 2219 3213 
L 2025 2691 
Q 1819 2813 1613 2813 
Q 1428 2813 1281 2702 
Q 1134 2591 1072 2394 
Q 978 2094 978 1738 
L 978 0 
L 416 0 
z
" transform="scale(0.015625)"/>
       <path id="ArialMT-61" d="M 2588 409 
Q 2275 144 1986 34 
Q 1697 -75 1366 -75 
Q 819 -75 525 192 
Q 231 459 231 875 
Q 231 1119 342 1320 
Q 453 1522 633 1644 
Q 813 1766 1038 1828 
Q 1203 1872 1538 1913 
Q 2219 1994 2541 2106 
Q 2544 2222 2544 2253 
Q 2544 2597 2384 2738 
Q 2169 2928 1744 2928 
Q 1347 2928 1158 2789 
Q 969 2650 878 2297 
L 328 2372 
Q 403 2725 575 2942 
Q 747 3159 1072 3276 
Q 1397 3394 1825 3394 
Q 2250 3394 2515 3294 
Q 2781 3194 2906 3042 
Q 3031 2891 3081 2659 
Q 3109 2516 3109 2141 
L 3109 1391 
Q 3109 606 3145 398 
Q 3181 191 3288 0 
L 2700 0 
Q 2613 175 2588 409 
z
M 2541 1666 
Q 2234 1541 1622 1453 
Q 1275 1403 1131 1340 
Q 988 1278 909 1158 
Q 831 1038 831 891 
Q 831 666 1001 516 
Q 1172 366 1500 366 
Q 1825 366 2078 508 
Q 2331 650 2450 897 
Q 2541 1088 2541 1459 
L 2541 1666 
z
" transform="scale(0.015625)"/>
       <path id="ArialMT-69" d="M 425 3934 
L 425 4581 
L 988 4581 
L 988 3934 
L 425 3934 
z
M 425 0 
L 425 3319 
L 988 3319 
L 988 0 
L 425 0 
z
" transform="scale(0.015625)"/>
       <path id="ArialMT-6e" d="M 422 0 
L 422 3319 
L 928 3319 
L 928 2847 
Q 1294 3394 1984 3394 
Q 2284 3394 2536 3286 
Q 2788 3178 2913 3003 
Q 3038 2828 3088 2588 
Q 3119 2431 3119 2041 
L 3119 0 
L 2556 0 
L 2556 2019 
Q 2556 2363 2490 2533 
Q 2425 2703 2258 2804 
Q 2091 2906 1866 2906 
Q 1506 2906 1245 2678 
Q 984 2450 984 1813 
L 984 0 
L 422 0 
z
" transform="scale(0.015625)"/>
       <path id="ArialMT-67" d="M 319 -275 
L 866 -356 
Q 900 -609 1056 -725 
Q 1266 -881 1628 -881 
Q 2019 -881 2231 -725 
Q 2444 -569 2519 -288 
Q 2563 -116 2559 434 
Q 2191 0 1641 0 
Q 956 0 581 494 
Q 206 988 206 1678 
Q 206 2153 378 2554 
Q 550 2956 876 3175 
Q 1203 3394 1644 3394 
Q 2231 3394 2613 2919 
L 2613 3319 
L 3131 3319 
L 3131 450 
Q 3131 -325 2973 -648 
Q 2816 -972 2473 -1159 
Q 2131 -1347 1631 -1347 
Q 1038 -1347 672 -1080 
Q 306 -813 319 -275 
z
M 784 1719 
Q 784 1066 1043 766 
Q 1303 466 1694 466 
Q 2081 466 2343 764 
Q 2606 1063 2606 1700 
Q 2606 2309 2336 2618 
Q 2066 2928 1684 2928 
Q 1309 2928 1046 2623 
Q 784 2319 784 1719 
z
" transform="scale(0.015625)"/>
       <path id="ArialMT-20" transform="scale(0.015625)"/>
       <path id="ArialMT-6d" d="M 422 0 
L 422 3319 
L 925 3319 
L 925 2853 
Q 1081 3097 1340 3245 
Q 1600 3394 1931 3394 
Q 2300 3394 2536 3241 
Q 2772 3088 2869 2813 
Q 3263 3394 3894 3394 
Q 4388 3394 4653 3120 
Q 4919 2847 4919 2278 
L 4919 0 
L 4359 0 
L 4359 2091 
Q 4359 2428 4304 2576 
Q 4250 2725 4106 2815 
Q 3963 2906 3769 2906 
Q 3419 2906 3187 2673 
Q 2956 2441 2956 1928 
L 2956 0 
L 2394 0 
L 2394 2156 
Q 2394 2531 2256 2718 
Q 2119 2906 1806 2906 
Q 1569 2906 1367 2781 
Q 1166 2656 1075 2415 
Q 984 2175 984 1722 
L 984 0 
L 422 0 
z
" transform="scale(0.015625)"/>
       <path id="ArialMT-28" d="M 1497 -1347 
Q 1031 -759 709 28 
Q 388 816 388 1659 
Q 388 2403 628 3084 
Q 909 3875 1497 4659 
L 1900 4659 
Q 1522 4009 1400 3731 
Q 1209 3300 1100 2831 
Q 966 2247 966 1656 
Q 966 153 1900 -1347 
L 1497 -1347 
z
" transform="scale(0.015625)"/>
       <path id="ArialMT-73" d="M 197 991 
L 753 1078 
Q 800 744 1014 566 
Q 1228 388 1613 388 
Q 2000 388 2187 545 
Q 2375 703 2375 916 
Q 2375 1106 2209 1216 
Q 2094 1291 1634 1406 
Q 1016 1563 777 1677 
Q 538 1791 414 1992 
Q 291 2194 291 2438 
Q 291 2659 392 2848 
Q 494 3038 669 3163 
Q 800 3259 1026 3326 
Q 1253 3394 1513 3394 
Q 1903 3394 2198 3281 
Q 2494 3169 2634 2976 
Q 2775 2784 2828 2463 
L 2278 2388 
Q 2241 2644 2061 2787 
Q 1881 2931 1553 2931 
Q 1166 2931 1000 2803 
Q 834 2675 834 2503 
Q 834 2394 903 2306 
Q 972 2216 1119 2156 
Q 1203 2125 1616 2013 
Q 2213 1853 2448 1751 
Q 2684 1650 2818 1456 
Q 2953 1263 2953 975 
Q 2953 694 2789 445 
Q 2625 197 2315 61 
Q 2006 -75 1616 -75 
Q 969 -75 630 194 
Q 291 463 197 991 
z
" transform="scale(0.015625)"/>
       <path id="ArialMT-29" d="M 791 -1347 
L 388 -1347 
Q 1322 153 1322 1656 
Q 1322 2244 1188 2822 
Q 1081 3291 891 3722 
Q 769 4003 388 4659 
L 791 4659 
Q 1378 3875 1659 3084 
Q 1900 2403 1900 1659 
Q 1900 816 1576 28 
Q 1253 -759 791 -1347 
z
" transform="scale(0.015625)"/>
      </defs>
      <use xlink:href="#ArialMT-54"/>
      <use xlink:href="#ArialMT-72" x="57.333984"/>
      <use xlink:href="#ArialMT-61" x="90.634766"/>
      <use xlink:href="#ArialMT-69" x="146.25"/>
      <use xlink:href="#ArialMT-6e" x="168.466797"/>
      <use xlink:href="#ArialMT-69" x="224.082031"/>
      <use xlink:href="#ArialMT-6e" x="246.298828"/>
      <use xlink:href="#ArialMT-67" x="301.914062"/>
      <use xlink:href="#ArialMT-20" x="357.529297"/>
      <use xlink:href="#ArialMT-74" x="385.3125"/>
      <use xlink:href="#ArialMT-69" x="413.095703"/>
      <use xlink:href="#ArialMT-6d" x="435.3125"/>
      <use xlink:href="#ArialMT-65" x="518.613281"/>
      <use xlink:href="#ArialMT-20" x="574.228516"/>
      <use xlink:href="#ArialMT-28" x="602.011719"/>
      <use xlink:href="#ArialMT-73" x="635.3125"/>
      <use xlink:href="#ArialMT-29" x="685.3125"/>
     </g>
    </g>
   </g>
   <g id="PolyCollection_1">
    <defs>
     <path id="m9ade0664c4" d="M 73.832727 -88.755667 
L 73.832727 -74.990515 
L 114.414545 -116.28597 
L 154.996364 -170.609027 
L 195.578182 -219.654509 
L 236.16 -262.538404 
L 236.16 -262.629949 
L 236.16 -262.629949 
L 195.578182 -219.75428 
L 154.996364 -170.981226 
L 114.414545 -116.28597 
L 73.832727 -88.755667 
z
" style="stroke: #1f77b4; stroke-opacity: 0.2"/>
    </defs>
    <g clip-path="url(#p4095605774)">
     <use xlink:href="#m9ade0664c4" x="0" y="345.6" style="fill: #1f77b4; fill-opacity: 0.2; stroke: #1f77b4; stroke-opacity: 0.2"/>
    </g>
   </g>
   <g id="PolyCollection_2">
    <defs>
     <path id="mf67217472f" d="M 73.832727 -88.755667 
L 73.832727 -77.642304 
L 114.414545 -116.28597 
L 154.996364 -170.532203 
L 195.578182 -219.713571 
L 236.16 -262.598439 
L 236.16 -262.692257 
L 236.16 -262.692257 
L 195.578182 -219.837376 
L 154.996364 -170.807388 
L 114.414545 -118.307264 
L 73.832727 -88.755667 
z
" style="stroke: #1f77b4; stroke-opacity: 0.2"/>
    </defs>
    <g clip-path="url(#p4095605774)">
     <use xlink:href="#mf67217472f" x="0" y="345.6" style="fill: #1f77b4; fill-opacity: 0.2; stroke: #1f77b4; stroke-opacity: 0.2"/>
    </g>
   </g>
   <g id="PolyCollection_3">
    <defs>
     <path id="m26b686a771" d="M 73.832727 -88.755667 
L 73.832727 -74.990515 
L 114.414545 -116.28597 
L 154.996364 -170.769395 
L 195.578182 -219.77686 
L 236.16 -262.543656 
L 236.16 -262.621041 
L 236.16 -262.621041 
L 195.578182 -219.884887 
L 154.996364 -171.138629 
L 114.414545 -116.28597 
L 73.832727 -88.755667 
z
" style="stroke: #1f77b4; stroke-opacity: 0.2"/>
    </defs>
    <g clip-path="url(#p4095605774)">
     <use xlink:href="#m26b686a771" x="0" y="345.6" style="fill: #1f77b4; fill-opacity: 0.2; stroke: #1f77b4; stroke-opacity: 0.2"/>
    </g>
   </g>
   <g id="PolyCollection_4">
    <defs>
     <path id="m8a23e3b07d" d="M 73.832727 -88.755667 
L 73.832727 -88.755667 
L 114.414545 -120.717359 
L 154.996364 -151.729981 
L 195.578182 -173.777348 
L 236.16 -195.942346 
L 276.741818 -217.422013 
L 317.323636 -229.6779 
L 357.905455 -230.253404 
L 398.487273 -212.924453 
L 398.487273 -274.576522 
L 398.487273 -274.576522 
L 357.905455 -272.900716 
L 317.323636 -263.789813 
L 276.741818 -247.613282 
L 236.16 -215.692214 
L 195.578182 -185.343098 
L 154.996364 -155.96599 
L 114.414545 -123.202964 
L 73.832727 -88.755667 
z
" style="stroke: #ff7f0e; stroke-opacity: 0.2"/>
    </defs>
    <g clip-path="url(#p4095605774)">
     <use xlink:href="#m8a23e3b07d" x="0" y="345.6" style="fill: #ff7f0e; fill-opacity: 0.2; stroke: #ff7f0e; stroke-opacity: 0.2"/>
    </g>
   </g>
   <g id="PolyCollection_5">
    <defs>
     <path id="m6b36756356" d="M 73.832727 -85.694401 
L 73.832727 -50.112 
L 114.414545 -116.982846 
L 154.996364 -154.207415 
L 195.578182 -193.325335 
L 236.16 -232.871576 
L 276.741818 -281.799633 
L 276.741818 -283.836377 
L 276.741818 -283.836377 
L 236.16 -235.45703 
L 195.578182 -194.242559 
L 154.996364 -155.231297 
L 114.414545 -121.276803 
L 73.832727 -85.694401 
z
" style="stroke: #ff7f0e; stroke-opacity: 0.2"/>
    </defs>
    <g clip-path="url(#p4095605774)">
     <use xlink:href="#m6b36756356" x="0" y="345.6" style="fill: #ff7f0e; fill-opacity: 0.2; stroke: #ff7f0e; stroke-opacity: 0.2"/>
    </g>
   </g>
   <g id="PolyCollection_6">
    <defs>
     <path id="m07f5943e56" d="M 73.832727 -96.807764 
L 73.832727 -74.990515 
L 114.414545 -118.625014 
L 154.996364 -151.308929 
L 195.578182 -185.646197 
L 236.16 -227.507422 
L 276.741818 -277.949604 
L 276.741818 -284.189275 
L 276.741818 -284.189275 
L 236.16 -233.730675 
L 195.578182 -191.588088 
L 154.996364 -153.072311 
L 114.414545 -122.610116 
L 73.832727 -96.807764 
z
" style="stroke: #ff7f0e; stroke-opacity: 0.2"/>
    </defs>
    <g clip-path="url(#p4095605774)">
     <use xlink:href="#m07f5943e56" x="0" y="345.6" style="fill: #ff7f0e; fill-opacity: 0.2; stroke: #ff7f0e; stroke-opacity: 0.2"/>
    </g>
   </g>
   <g id="PolyCollection_7">
    <path d="M 73.832727 264.896431 
L 73.832727 45846.508374 
L 114.414545 229.31403 
L 154.996364 188.542587 
L 195.578182 159.529204 
L 236.16 143.997127 
L 276.741818 140.874772 
L 317.323636 140.874772 
L 357.905455 138.559285 
L 398.487273 139.630085 
L 398.487273 81.353676 
L 398.487273 81.353676 
L 357.905455 81.628432 
L 317.323636 81.640137 
L 276.741818 90.658453 
L 236.16 108.476811 
L 195.578182 138.393275 
L 154.996364 177.566235 
L 114.414545 226.252764 
L 73.832727 264.896431 
z
" clip-path="url(#p4095605774)" style="fill: #2ca02c; fill-opacity: 0.2; stroke: #2ca02c; stroke-opacity: 0.2"/>
   </g>
   <g id="PolyCollection_8">
    <defs>
     <path id="m4e2eafed1d" d="M 73.832727 -88.755667 
L 73.832727 -71.929249 
L 114.414545 -116.982846 
L 154.996364 -170.898276 
L 195.578182 -217.944899 
L 236.16 -258.512974 
L 236.16 -259.343878 
L 236.16 -259.343878 
L 195.578182 -218.344002 
L 154.996364 -171.257723 
L 114.414545 -120.141698 
L 73.832727 -88.755667 
z
" style="stroke: #2ca02c; stroke-opacity: 0.2"/>
    </defs>
    <g clip-path="url(#p4095605774)">
     <use xlink:href="#m4e2eafed1d" x="0" y="345.6" style="fill: #2ca02c; fill-opacity: 0.2; stroke: #2ca02c; stroke-opacity: 0.2"/>
    </g>
   </g>
   <g id="PolyCollection_9">
    <path d="M 73.832727 264.896431 
L 73.832727 45846.508374 
L 114.414545 227.724468 
L 154.996364 174.566168 
L 195.578182 128.016038 
L 236.16 86.228523 
L 236.16 85.316472 
L 236.16 85.316472 
L 195.578182 127.259463 
L 154.996364 174.409179 
L 114.414545 224.882641 
L 73.832727 264.896431 
z
" clip-path="url(#p4095605774)" style="fill: #2ca02c; fill-opacity: 0.2; stroke: #2ca02c; stroke-opacity: 0.2"/>
   </g>
   <g id="PolyCollection_10">
    <defs>
     <path id="m5fa36ba352" d="M 73.832727 -85.134958 
L 73.832727 -53.173265 
L 114.414545 -113.634182 
L 154.996364 -154.571809 
L 195.578182 -184.625514 
L 236.16 -197.035773 
L 276.741818 -200.605291 
L 317.323636 -197.373327 
L 357.905455 -199.69997 
L 398.487273 -201.219085 
L 398.487273 -259.436061 
L 398.487273 -259.436061 
L 357.905455 -259.575251 
L 317.323636 -259.497611 
L 276.741818 -252.533918 
L 236.16 -234.106108 
L 195.578182 -205.603134 
L 154.996364 -166.377897 
L 114.414545 -116.28597 
L 73.832727 -85.134958 
z
" style="stroke: #d62728; stroke-opacity: 0.2"/>
    </defs>
    <g clip-path="url(#p4095605774)">
     <use xlink:href="#m5fa36ba352" x="0" y="345.6" style="fill: #d62728; fill-opacity: 0.2; stroke: #d62728; stroke-opacity: 0.2"/>
    </g>
   </g>
   <g id="PolyCollection_11">
    <defs>
     <path id="m5f1cefe48b" d="M 73.832727 -85.694401 
L 73.832727 -50.112 
L 114.414545 -116.28597 
L 154.996364 -169.634739 
L 195.578182 -216.742656 
L 236.16 -257.124413 
L 236.16 -257.885435 
L 236.16 -257.885435 
L 195.578182 -217.175226 
L 154.996364 -169.922554 
L 114.414545 -118.937759 
L 73.832727 -85.694401 
z
" style="stroke: #d62728; stroke-opacity: 0.2"/>
    </defs>
    <g clip-path="url(#p4095605774)">
     <use xlink:href="#m5f1cefe48b" x="0" y="345.6" style="fill: #d62728; fill-opacity: 0.2; stroke: #d62728; stroke-opacity: 0.2"/>
    </g>
   </g>
   <g id="PolyCollection_12">
    <defs>
     <path id="m2800af9aec" d="M 73.832727 -85.134958 
L 73.832727 -53.173265 
L 114.414545 -113.634182 
L 154.996364 -169.731141 
L 195.578182 -216.351966 
L 236.16 -257.971236 
L 236.16 -258.996433 
L 236.16 -258.996433 
L 195.578182 -217.145693 
L 154.996364 -169.954278 
L 114.414545 -116.28597 
L 73.832727 -85.134958 
z
" style="stroke: #d62728; stroke-opacity: 0.2"/>
    </defs>
    <g clip-path="url(#p4095605774)">
     <use xlink:href="#m2800af9aec" x="0" y="345.6" style="fill: #d62728; fill-opacity: 0.2; stroke: #d62728; stroke-opacity: 0.2"/>
    </g>
   </g>
   <g id="PolyCollection_13">
    <defs>
     <path id="m5e730add78" d="M 73.832727 -187.560795 
L 73.832727 -155.070982 
L 114.414545 -155.211329 
L 154.996364 -154.929637 
L 195.578182 -155.626513 
L 236.16 -155.211329 
L 276.741818 -155.626513 
L 317.323636 -154.929637 
L 357.905455 -155.48908 
L 398.487273 -154.929637 
L 398.487273 -198.230365 
L 398.487273 -198.230365 
L 357.905455 -198.262395 
L 317.323636 -199.89008 
L 276.741818 -197.395627 
L 236.16 -199.261012 
L 195.578182 -199.3975 
L 154.996364 -196.384035 
L 114.414545 -195.794919 
L 73.832727 -187.560795 
z
" style="stroke: #9467bd; stroke-opacity: 0.2"/>
    </defs>
    <g clip-path="url(#p4095605774)">
     <use xlink:href="#m5e730add78" x="0" y="345.6" style="fill: #9467bd; fill-opacity: 0.2; stroke: #9467bd; stroke-opacity: 0.2"/>
    </g>
   </g>
   <g id="PolyCollection_14">
    <defs>
     <path id="me5da6a98d4" d="M 73.832727 -197.333441 
L 73.832727 -195.542234 
L 114.414545 -222.517336 
L 154.996364 -250.033417 
L 195.578182 -277.584371 
L 195.578182 -282.462026 
L 195.578182 -282.462026 
L 154.996364 -252.356677 
L 114.414545 -224.004127 
L 73.832727 -197.333441 
z
" style="stroke: #9467bd; stroke-opacity: 0.2"/>
    </defs>
    <g clip-path="url(#p4095605774)">
     <use xlink:href="#me5da6a98d4" x="0" y="345.6" style="fill: #9467bd; fill-opacity: 0.2; stroke: #9467bd; stroke-opacity: 0.2"/>
    </g>
   </g>
   <g id="PolyCollection_15">
    <defs>
     <path id="m880ec33db6" d="M 73.832727 -205.098034 
L 73.832727 -199.970084 
L 114.414545 -228.745295 
L 154.996364 -257.630572 
L 195.578182 -288.097231 
L 195.578182 -292.032 
L 195.578182 -292.032 
L 154.996364 -263.792138 
L 114.414545 -235.618554 
L 73.832727 -205.098034 
z
" style="stroke: #9467bd; stroke-opacity: 0.2"/>
    </defs>
    <g clip-path="url(#p4095605774)">
     <use xlink:href="#m880ec33db6" x="0" y="345.6" style="fill: #9467bd; fill-opacity: 0.2; stroke: #9467bd; stroke-opacity: 0.2"/>
    </g>
   </g>
   <g id="line2d_16">
    <path d="M 73.832727 260.465042 
L 114.414545 229.31403 
L 154.996364 174.777435 
L 195.578182 125.895486 
L 236.16 83.019182 
" clip-path="url(#p4095605774)" style="fill: none; stroke: #1f77b4; stroke-width: 3; stroke-linecap: round"/>
    <defs>
     <path id="m932dfcfaf9" d="M 0 3 
C 0.795609 3 1.55874 2.683901 2.12132 2.12132 
C 2.683901 1.55874 3 0.795609 3 0 
C 3 -0.795609 2.683901 -1.55874 2.12132 -2.12132 
C 1.55874 -2.683901 0.795609 -3 0 -3 
C -0.795609 -3 -1.55874 -2.683901 -2.12132 -2.12132 
C -2.683901 -1.55874 -3 -0.795609 -3 0 
C -3 0.795609 -2.683901 1.55874 -2.12132 2.12132 
C -1.55874 2.683901 -0.795609 3 0 3 
z
" style="stroke: #ffffff; stroke-width: 0.75"/>
    </defs>
    <g clip-path="url(#p4095605774)">
     <use xlink:href="#m932dfcfaf9" x="73.832727" y="260.465042" style="fill: #1f77b4; stroke: #ffffff; stroke-width: 0.75"/>
     <use xlink:href="#m932dfcfaf9" x="114.414545" y="229.31403" style="fill: #1f77b4; stroke: #ffffff; stroke-width: 0.75"/>
     <use xlink:href="#m932dfcfaf9" x="154.996364" y="174.777435" style="fill: #1f77b4; stroke: #ffffff; stroke-width: 0.75"/>
     <use xlink:href="#m932dfcfaf9" x="195.578182" y="125.895486" style="fill: #1f77b4; stroke: #ffffff; stroke-width: 0.75"/>
     <use xlink:href="#m932dfcfaf9" x="236.16" y="83.019182" style="fill: #1f77b4; stroke: #ffffff; stroke-width: 0.75"/>
    </g>
   </g>
   <g id="line2d_17">
    <path d="M 73.832727 259.905599 
L 114.414545 228.617154 
L 154.996364 174.929728 
L 195.578182 125.82443 
L 236.16 82.952363 
" clip-path="url(#p4095605774)" style="fill: none; stroke: #1f77b4; stroke-width: 1.875; stroke-linecap: round"/>
    <g clip-path="url(#p4095605774)">
     <use xlink:href="#m932dfcfaf9" x="73.832727" y="259.905599" style="fill: #1f77b4; stroke: #ffffff; stroke-width: 0.75"/>
     <use xlink:href="#m932dfcfaf9" x="114.414545" y="228.617154" style="fill: #1f77b4; stroke: #ffffff; stroke-width: 0.75"/>
     <use xlink:href="#m932dfcfaf9" x="154.996364" y="174.929728" style="fill: #1f77b4; stroke: #ffffff; stroke-width: 0.75"/>
     <use xlink:href="#m932dfcfaf9" x="195.578182" y="125.82443" style="fill: #1f77b4; stroke: #ffffff; stroke-width: 0.75"/>
     <use xlink:href="#m932dfcfaf9" x="236.16" y="82.952363" style="fill: #1f77b4; stroke: #ffffff; stroke-width: 0.75"/>
    </g>
   </g>
   <g id="line2d_18">
    <path d="M 73.832727 260.465042 
L 114.414545 229.31403 
L 154.996364 174.67152 
L 195.578182 125.773555 
L 236.16 83.021797 
" clip-path="url(#p4095605774)" style="fill: none; stroke: #1f77b4; stroke-width: 0.75; stroke-linecap: round"/>
    <g clip-path="url(#p4095605774)">
     <use xlink:href="#m932dfcfaf9" x="73.832727" y="260.465042" style="fill: #1f77b4; stroke: #ffffff; stroke-width: 0.75"/>
     <use xlink:href="#m932dfcfaf9" x="114.414545" y="229.31403" style="fill: #1f77b4; stroke: #ffffff; stroke-width: 0.75"/>
     <use xlink:href="#m932dfcfaf9" x="154.996364" y="174.67152" style="fill: #1f77b4; stroke: #ffffff; stroke-width: 0.75"/>
     <use xlink:href="#m932dfcfaf9" x="195.578182" y="125.773555" style="fill: #1f77b4; stroke: #ffffff; stroke-width: 0.75"/>
     <use xlink:href="#m932dfcfaf9" x="236.16" y="83.021797" style="fill: #1f77b4; stroke: #ffffff; stroke-width: 0.75"/>
    </g>
   </g>
   <g id="line2d_19">
    <path d="M 73.832727 256.844333 
L 114.414545 223.600975 
L 154.996364 191.392585 
L 195.578182 164.675516 
L 236.16 137.918347 
L 276.741818 109.652859 
L 317.323636 93.771384 
L 357.905455 86.780527 
L 398.487273 87.925112 
" clip-path="url(#p4095605774)" style="fill: none; stroke-dasharray: 12,4.5; stroke-dashoffset: 0; stroke: #ff7f0e; stroke-width: 3"/>
    <defs>
     <path id="m20bfa53325" d="M -1.5 3 
L 0 1.5 
L 1.5 3 
L 3 1.5 
L 1.5 0 
L 3 -1.5 
L 1.5 -3 
L 0 -1.5 
L -1.5 -3 
L -3 -1.5 
L -1.5 0 
L -3 1.5 
z
" style="stroke: #ffffff; stroke-width: 0.75; stroke-linejoin: miter"/>
    </defs>
    <g clip-path="url(#p4095605774)">
     <use xlink:href="#m20bfa53325" x="73.832727" y="256.844333" style="fill: #ff7f0e; stroke: #ffffff; stroke-width: 0.75; stroke-linejoin: miter"/>
     <use xlink:href="#m20bfa53325" x="114.414545" y="223.600975" style="fill: #ff7f0e; stroke: #ffffff; stroke-width: 0.75; stroke-linejoin: miter"/>
     <use xlink:href="#m20bfa53325" x="154.996364" y="191.392585" style="fill: #ff7f0e; stroke: #ffffff; stroke-width: 0.75; stroke-linejoin: miter"/>
     <use xlink:href="#m20bfa53325" x="195.578182" y="164.675516" style="fill: #ff7f0e; stroke: #ffffff; stroke-width: 0.75; stroke-linejoin: miter"/>
     <use xlink:href="#m20bfa53325" x="236.16" y="137.918347" style="fill: #ff7f0e; stroke: #ffffff; stroke-width: 0.75; stroke-linejoin: miter"/>
     <use xlink:href="#m20bfa53325" x="276.741818" y="109.652859" style="fill: #ff7f0e; stroke: #ffffff; stroke-width: 0.75; stroke-linejoin: miter"/>
     <use xlink:href="#m20bfa53325" x="317.323636" y="93.771384" style="fill: #ff7f0e; stroke: #ffffff; stroke-width: 0.75; stroke-linejoin: miter"/>
     <use xlink:href="#m20bfa53325" x="357.905455" y="86.780527" style="fill: #ff7f0e; stroke: #ffffff; stroke-width: 0.75; stroke-linejoin: miter"/>
     <use xlink:href="#m20bfa53325" x="398.487273" y="87.925112" style="fill: #ff7f0e; stroke: #ffffff; stroke-width: 0.75; stroke-linejoin: miter"/>
    </g>
   </g>
   <g id="line2d_20">
    <path d="M 73.832727 267.957696 
L 114.414545 226.662241 
L 154.996364 190.874046 
L 195.578182 151.796445 
L 236.16 111.440333 
L 276.741818 62.724464 
" clip-path="url(#p4095605774)" style="fill: none; stroke-dasharray: 7.5,2.8125; stroke-dashoffset: 0; stroke: #ff7f0e; stroke-width: 1.875"/>
    <g clip-path="url(#p4095605774)">
     <use xlink:href="#m20bfa53325" x="73.832727" y="267.957696" style="fill: #ff7f0e; stroke: #ffffff; stroke-width: 0.75; stroke-linejoin: miter"/>
     <use xlink:href="#m20bfa53325" x="114.414545" y="226.662241" style="fill: #ff7f0e; stroke: #ffffff; stroke-width: 0.75; stroke-linejoin: miter"/>
     <use xlink:href="#m20bfa53325" x="154.996364" y="190.874046" style="fill: #ff7f0e; stroke: #ffffff; stroke-width: 0.75; stroke-linejoin: miter"/>
     <use xlink:href="#m20bfa53325" x="195.578182" y="151.796445" style="fill: #ff7f0e; stroke: #ffffff; stroke-width: 0.75; stroke-linejoin: miter"/>
     <use xlink:href="#m20bfa53325" x="236.16" y="111.440333" style="fill: #ff7f0e; stroke: #ffffff; stroke-width: 0.75; stroke-linejoin: miter"/>
     <use xlink:href="#m20bfa53325" x="276.741818" y="62.724464" style="fill: #ff7f0e; stroke: #ffffff; stroke-width: 0.75; stroke-linejoin: miter"/>
    </g>
   </g>
   <g id="line2d_21">
    <path d="M 73.832727 256.844333 
L 114.414545 224.882641 
L 154.996364 193.457708 
L 195.578182 156.644715 
L 236.16 114.756255 
L 276.741818 64.273555 
" clip-path="url(#p4095605774)" style="fill: none; stroke-dasharray: 3,1.125; stroke-dashoffset: 0; stroke: #ff7f0e; stroke-width: 0.75"/>
    <g clip-path="url(#p4095605774)">
     <use xlink:href="#m20bfa53325" x="73.832727" y="256.844333" style="fill: #ff7f0e; stroke: #ffffff; stroke-width: 0.75; stroke-linejoin: miter"/>
     <use xlink:href="#m20bfa53325" x="114.414545" y="224.882641" style="fill: #ff7f0e; stroke: #ffffff; stroke-width: 0.75; stroke-linejoin: miter"/>
     <use xlink:href="#m20bfa53325" x="154.996364" y="193.457708" style="fill: #ff7f0e; stroke: #ffffff; stroke-width: 0.75; stroke-linejoin: miter"/>
     <use xlink:href="#m20bfa53325" x="195.578182" y="156.644715" style="fill: #ff7f0e; stroke: #ffffff; stroke-width: 0.75; stroke-linejoin: miter"/>
     <use xlink:href="#m20bfa53325" x="236.16" y="114.756255" style="fill: #ff7f0e; stroke: #ffffff; stroke-width: 0.75; stroke-linejoin: miter"/>
     <use xlink:href="#m20bfa53325" x="276.741818" y="64.273555" style="fill: #ff7f0e; stroke: #ffffff; stroke-width: 0.75; stroke-linejoin: miter"/>
    </g>
   </g>
   <g id="line2d_22">
    <path d="M 73.832727 278.661583 
L 114.414545 227.724468 
L 154.996364 181.619347 
L 195.578182 146.074451 
L 236.16 120.526264 
L 276.741818 105.060977 
L 317.323636 99.247432 
L 357.905455 99.130569 
L 398.487273 98.789835 
" clip-path="url(#p4095605774)" style="fill: none; stroke-dasharray: 3,3; stroke-dashoffset: 0; stroke: #2ca02c; stroke-width: 3"/>
    <defs>
     <path id="mbf172d852c" d="M -2.12132 -2.12132 
L -2.12132 2.12132 
L 2.12132 2.12132 
L 2.12132 -2.12132 
z
" style="stroke: #ffffff; stroke-width: 0.75; stroke-linejoin: miter"/>
    </defs>
    <g clip-path="url(#p4095605774)">
     <use xlink:href="#mbf172d852c" x="73.832727" y="278.661583" style="fill: #2ca02c; stroke: #ffffff; stroke-width: 0.75; stroke-linejoin: miter"/>
     <use xlink:href="#mbf172d852c" x="114.414545" y="227.724468" style="fill: #2ca02c; stroke: #ffffff; stroke-width: 0.75; stroke-linejoin: miter"/>
     <use xlink:href="#mbf172d852c" x="154.996364" y="181.619347" style="fill: #2ca02c; stroke: #ffffff; stroke-width: 0.75; stroke-linejoin: miter"/>
     <use xlink:href="#mbf172d852c" x="195.578182" y="146.074451" style="fill: #2ca02c; stroke: #ffffff; stroke-width: 0.75; stroke-linejoin: miter"/>
     <use xlink:href="#mbf172d852c" x="236.16" y="120.526264" style="fill: #2ca02c; stroke: #ffffff; stroke-width: 0.75; stroke-linejoin: miter"/>
     <use xlink:href="#mbf172d852c" x="276.741818" y="105.060977" style="fill: #2ca02c; stroke: #ffffff; stroke-width: 0.75; stroke-linejoin: miter"/>
     <use xlink:href="#mbf172d852c" x="317.323636" y="99.247432" style="fill: #2ca02c; stroke: #ffffff; stroke-width: 0.75; stroke-linejoin: miter"/>
     <use xlink:href="#mbf172d852c" x="357.905455" y="99.130569" style="fill: #2ca02c; stroke: #ffffff; stroke-width: 0.75; stroke-linejoin: miter"/>
     <use xlink:href="#mbf172d852c" x="398.487273" y="98.789835" style="fill: #2ca02c; stroke: #ffffff; stroke-width: 0.75; stroke-linejoin: miter"/>
    </g>
   </g>
   <g id="line2d_23">
    <path d="M 73.832727 263.526307 
L 114.414545 227.292736 
L 154.996364 174.521187 
L 195.578182 127.452395 
L 236.16 86.671679 
" clip-path="url(#p4095605774)" style="fill: none; stroke-dasharray: 1.875,1.875; stroke-dashoffset: 0; stroke: #2ca02c; stroke-width: 1.875"/>
    <g clip-path="url(#p4095605774)">
     <use xlink:href="#mbf172d852c" x="73.832727" y="263.526307" style="fill: #2ca02c; stroke: #ffffff; stroke-width: 0.75; stroke-linejoin: miter"/>
     <use xlink:href="#mbf172d852c" x="114.414545" y="227.292736" style="fill: #2ca02c; stroke: #ffffff; stroke-width: 0.75; stroke-linejoin: miter"/>
     <use xlink:href="#mbf172d852c" x="154.996364" y="174.521187" style="fill: #2ca02c; stroke: #ffffff; stroke-width: 0.75; stroke-linejoin: miter"/>
     <use xlink:href="#mbf172d852c" x="195.578182" y="127.452395" style="fill: #2ca02c; stroke: #ffffff; stroke-width: 0.75; stroke-linejoin: miter"/>
     <use xlink:href="#mbf172d852c" x="236.16" y="86.671679" style="fill: #2ca02c; stroke: #ffffff; stroke-width: 0.75; stroke-linejoin: miter"/>
    </g>
   </g>
   <g id="line2d_24">
    <path d="M 73.832727 278.661583 
L 114.414545 226.252764 
L 154.996364 174.5137 
L 195.578182 127.65641 
L 236.16 85.757063 
" clip-path="url(#p4095605774)" style="fill: none; stroke-dasharray: 0.75,0.75; stroke-dashoffset: 0; stroke: #2ca02c; stroke-width: 0.75"/>
    <g clip-path="url(#p4095605774)">
     <use xlink:href="#mbf172d852c" x="73.832727" y="278.661583" style="fill: #2ca02c; stroke: #ffffff; stroke-width: 0.75; stroke-linejoin: miter"/>
     <use xlink:href="#mbf172d852c" x="114.414545" y="226.252764" style="fill: #2ca02c; stroke: #ffffff; stroke-width: 0.75; stroke-linejoin: miter"/>
     <use xlink:href="#mbf172d852c" x="154.996364" y="174.5137" style="fill: #2ca02c; stroke: #ffffff; stroke-width: 0.75; stroke-linejoin: miter"/>
     <use xlink:href="#mbf172d852c" x="195.578182" y="127.65641" style="fill: #2ca02c; stroke: #ffffff; stroke-width: 0.75; stroke-linejoin: miter"/>
     <use xlink:href="#mbf172d852c" x="236.16" y="85.757063" style="fill: #2ca02c; stroke: #ffffff; stroke-width: 0.75; stroke-linejoin: miter"/>
    </g>
   </g>
   <g id="line2d_25">
    <path d="M 73.832727 270.609485 
L 114.414545 230.159217 
L 154.996364 183.504611 
L 195.578182 148.310525 
L 236.16 123.689765 
L 276.741818 109.077483 
L 317.323636 103.698365 
L 357.905455 103.59494 
L 398.487273 103.380945 
" clip-path="url(#p4095605774)" style="fill: none; stroke-dasharray: 9,3.75,4.5,3.75; stroke-dashoffset: 0; stroke: #d62728; stroke-width: 3"/>
    <defs>
     <path id="m6facd65510" d="M -1 3 
L 1 3 
L 1 1 
L 3 1 
L 3 -1 
L 1 -1 
L 1 -3 
L -1 -3 
L -1 -1 
L -3 -1 
L -3 1 
L -1 1 
z
" style="stroke: #ffffff; stroke-width: 0.75; stroke-linejoin: miter"/>
    </defs>
    <g clip-path="url(#p4095605774)">
     <use xlink:href="#m6facd65510" x="73.832727" y="270.609485" style="fill: #d62728; stroke: #ffffff; stroke-width: 0.75; stroke-linejoin: miter"/>
     <use xlink:href="#m6facd65510" x="114.414545" y="230.159217" style="fill: #d62728; stroke: #ffffff; stroke-width: 0.75; stroke-linejoin: miter"/>
     <use xlink:href="#m6facd65510" x="154.996364" y="183.504611" style="fill: #d62728; stroke: #ffffff; stroke-width: 0.75; stroke-linejoin: miter"/>
     <use xlink:href="#m6facd65510" x="195.578182" y="148.310525" style="fill: #d62728; stroke: #ffffff; stroke-width: 0.75; stroke-linejoin: miter"/>
     <use xlink:href="#m6facd65510" x="236.16" y="123.689765" style="fill: #d62728; stroke: #ffffff; stroke-width: 0.75; stroke-linejoin: miter"/>
     <use xlink:href="#m6facd65510" x="276.741818" y="109.077483" style="fill: #d62728; stroke: #ffffff; stroke-width: 0.75; stroke-linejoin: miter"/>
     <use xlink:href="#m6facd65510" x="317.323636" y="103.698365" style="fill: #d62728; stroke: #ffffff; stroke-width: 0.75; stroke-linejoin: miter"/>
     <use xlink:href="#m6facd65510" x="357.905455" y="103.59494" style="fill: #d62728; stroke: #ffffff; stroke-width: 0.75; stroke-linejoin: miter"/>
     <use xlink:href="#m6facd65510" x="398.487273" y="103.380945" style="fill: #d62728; stroke: #ffffff; stroke-width: 0.75; stroke-linejoin: miter"/>
    </g>
   </g>
   <g id="line2d_26">
    <path d="M 73.832727 267.957696 
L 114.414545 227.943906 
L 154.996364 175.820832 
L 195.578182 128.615432 
L 236.16 88.070914 
" clip-path="url(#p4095605774)" style="fill: none; stroke-dasharray: 5.625,2.34375,2.8125,2.34375; stroke-dashoffset: 0; stroke: #d62728; stroke-width: 1.875"/>
    <g clip-path="url(#p4095605774)">
     <use xlink:href="#m6facd65510" x="73.832727" y="267.957696" style="fill: #d62728; stroke: #ffffff; stroke-width: 0.75; stroke-linejoin: miter"/>
     <use xlink:href="#m6facd65510" x="114.414545" y="227.943906" style="fill: #d62728; stroke: #ffffff; stroke-width: 0.75; stroke-linejoin: miter"/>
     <use xlink:href="#m6facd65510" x="154.996364" y="175.820832" style="fill: #d62728; stroke: #ffffff; stroke-width: 0.75; stroke-linejoin: miter"/>
     <use xlink:href="#m6facd65510" x="195.578182" y="128.615432" style="fill: #d62728; stroke: #ffffff; stroke-width: 0.75; stroke-linejoin: miter"/>
     <use xlink:href="#m6facd65510" x="236.16" y="88.070914" style="fill: #d62728; stroke: #ffffff; stroke-width: 0.75; stroke-linejoin: miter"/>
    </g>
   </g>
   <g id="line2d_27">
    <path d="M 73.832727 270.609485 
L 114.414545 230.159217 
L 154.996364 175.756977 
L 195.578182 128.85509 
L 236.16 87.100967 
" clip-path="url(#p4095605774)" style="fill: none; stroke-dasharray: 2.25,0.9375,1.125,0.9375; stroke-dashoffset: 0; stroke: #d62728; stroke-width: 0.75"/>
    <g clip-path="url(#p4095605774)">
     <use xlink:href="#m6facd65510" x="73.832727" y="270.609485" style="fill: #d62728; stroke: #ffffff; stroke-width: 0.75; stroke-linejoin: miter"/>
     <use xlink:href="#m6facd65510" x="114.414545" y="230.159217" style="fill: #d62728; stroke: #ffffff; stroke-width: 0.75; stroke-linejoin: miter"/>
     <use xlink:href="#m6facd65510" x="154.996364" y="175.756977" style="fill: #d62728; stroke: #ffffff; stroke-width: 0.75; stroke-linejoin: miter"/>
     <use xlink:href="#m6facd65510" x="195.578182" y="128.85509" style="fill: #d62728; stroke: #ffffff; stroke-width: 0.75; stroke-linejoin: miter"/>
     <use xlink:href="#m6facd65510" x="236.16" y="87.100967" style="fill: #d62728; stroke: #ffffff; stroke-width: 0.75; stroke-linejoin: miter"/>
    </g>
   </g>
   <g id="line2d_28">
    <path d="M 73.832727 170.071834 
L 114.414545 163.899091 
L 154.996364 163.606505 
L 195.578182 162.204942 
L 236.16 162.306696 
L 276.741818 162.858368 
L 317.323636 161.836243 
L 357.905455 162.963534 
L 398.487273 163.140059 
" clip-path="url(#p4095605774)" style="fill: none; stroke-dasharray: 15,3,3,3; stroke-dashoffset: 0; stroke: #9467bd; stroke-width: 3"/>
    <defs>
     <path id="ma27f874388" d="M 0 -3 
L -3 -0 
L -0 3 
L 3 0 
z
" style="stroke: #ffffff; stroke-width: 0.75; stroke-linejoin: miter"/>
    </defs>
    <g clip-path="url(#p4095605774)">
     <use xlink:href="#ma27f874388" x="73.832727" y="170.071834" style="fill: #9467bd; stroke: #ffffff; stroke-width: 0.75; stroke-linejoin: miter"/>
     <use xlink:href="#ma27f874388" x="114.414545" y="163.899091" style="fill: #9467bd; stroke: #ffffff; stroke-width: 0.75; stroke-linejoin: miter"/>
     <use xlink:href="#ma27f874388" x="154.996364" y="163.606505" style="fill: #9467bd; stroke: #ffffff; stroke-width: 0.75; stroke-linejoin: miter"/>
     <use xlink:href="#ma27f874388" x="195.578182" y="162.204942" style="fill: #9467bd; stroke: #ffffff; stroke-width: 0.75; stroke-linejoin: miter"/>
     <use xlink:href="#ma27f874388" x="236.16" y="162.306696" style="fill: #9467bd; stroke: #ffffff; stroke-width: 0.75; stroke-linejoin: miter"/>
     <use xlink:href="#ma27f874388" x="276.741818" y="162.858368" style="fill: #9467bd; stroke: #ffffff; stroke-width: 0.75; stroke-linejoin: miter"/>
     <use xlink:href="#ma27f874388" x="317.323636" y="161.836243" style="fill: #9467bd; stroke: #ffffff; stroke-width: 0.75; stroke-linejoin: miter"/>
     <use xlink:href="#ma27f874388" x="357.905455" y="162.963534" style="fill: #9467bd; stroke: #ffffff; stroke-width: 0.75; stroke-linejoin: miter"/>
     <use xlink:href="#ma27f874388" x="398.487273" y="163.140059" style="fill: #9467bd; stroke: #ffffff; stroke-width: 0.75; stroke-linejoin: miter"/>
    </g>
   </g>
   <g id="line2d_29">
    <path d="M 73.832727 149.110705 
L 114.414545 122.331806 
L 154.996364 94.462081 
L 195.578182 65.580616 
" clip-path="url(#p4095605774)" style="fill: none; stroke-dasharray: 9.375,1.875,1.875,1.875; stroke-dashoffset: 0; stroke: #9467bd; stroke-width: 1.875"/>
    <g clip-path="url(#p4095605774)">
     <use xlink:href="#ma27f874388" x="73.832727" y="149.110705" style="fill: #9467bd; stroke: #ffffff; stroke-width: 0.75; stroke-linejoin: miter"/>
     <use xlink:href="#ma27f874388" x="114.414545" y="122.331806" style="fill: #9467bd; stroke: #ffffff; stroke-width: 0.75; stroke-linejoin: miter"/>
     <use xlink:href="#ma27f874388" x="154.996364" y="94.462081" style="fill: #9467bd; stroke: #ffffff; stroke-width: 0.75; stroke-linejoin: miter"/>
     <use xlink:href="#ma27f874388" x="195.578182" y="65.580616" style="fill: #9467bd; stroke: #ffffff; stroke-width: 0.75; stroke-linejoin: miter"/>
    </g>
   </g>
   <g id="line2d_30">
    <path d="M 73.832727 143.375792 
L 114.414545 113.351693 
L 154.996364 84.419097 
L 195.578182 55.438091 
" clip-path="url(#p4095605774)" style="fill: none; stroke-dasharray: 3.75,0.75,0.75,0.75; stroke-dashoffset: 0; stroke: #9467bd; stroke-width: 0.75"/>
    <g clip-path="url(#p4095605774)">
     <use xlink:href="#ma27f874388" x="73.832727" y="143.375792" style="fill: #9467bd; stroke: #ffffff; stroke-width: 0.75; stroke-linejoin: miter"/>
     <use xlink:href="#ma27f874388" x="114.414545" y="113.351693" style="fill: #9467bd; stroke: #ffffff; stroke-width: 0.75; stroke-linejoin: miter"/>
     <use xlink:href="#ma27f874388" x="154.996364" y="84.419097" style="fill: #9467bd; stroke: #ffffff; stroke-width: 0.75; stroke-linejoin: miter"/>
     <use xlink:href="#ma27f874388" x="195.578182" y="55.438091" style="fill: #9467bd; stroke: #ffffff; stroke-width: 0.75; stroke-linejoin: miter"/>
    </g>
   </g>
   <g id="line2d_31"/>
   <g id="line2d_32"/>
   <g id="line2d_33"/>
   <g id="line2d_34"/>
   <g id="line2d_35"/>
   <g id="line2d_36"/>
   <g id="line2d_37"/>
   <g id="line2d_38"/>
   <g id="patch_3">
    <path d="M 57.6 307.584 
L 57.6 41.472 
" style="fill: none; stroke: #ffffff; stroke-width: 0.8; stroke-linejoin: miter; stroke-linecap: square"/>
   </g>
   <g id="patch_4">
    <path d="M 414.72 307.584 
L 414.72 41.472 
" style="fill: none; stroke: #ffffff; stroke-width: 0.8; stroke-linejoin: miter; stroke-linecap: square"/>
   </g>
   <g id="patch_5">
    <path d="M 57.6 307.584 
L 414.72 307.584 
" style="fill: none; stroke: #ffffff; stroke-width: 0.8; stroke-linejoin: miter; stroke-linecap: square"/>
   </g>
   <g id="patch_6">
    <path d="M 57.6 41.472 
L 414.72 41.472 
" style="fill: none; stroke: #ffffff; stroke-width: 0.8; stroke-linejoin: miter; stroke-linecap: square"/>
   </g>
   <g id="legend_1">
    <g id="patch_7">
     <path d="M 181.5075 302.584 
L 407.72 302.584 
Q 409.72 302.584 409.72 300.584 
L 409.72 158.101187 
Q 409.72 156.101187 407.72 156.101187 
L 181.5075 156.101187 
Q 179.5075 156.101187 179.5075 158.101187 
L 179.5075 300.584 
Q 179.5075 302.584 181.5075 302.584 
z
" style="fill: #eaeaf2; opacity: 0.8; stroke: #cccccc; stroke-linejoin: miter"/>
    </g>
    <g id="text_18">
     <!-- Algorithm -->
     <g style="fill: #262626" transform="translate(191.5075 167.259) scale(0.1 -0.1)">
      <defs>
       <path id="ArialMT-41" d="M -9 0 
L 1750 4581 
L 2403 4581 
L 4278 0 
L 3588 0 
L 3053 1388 
L 1138 1388 
L 634 0 
L -9 0 
z
M 1313 1881 
L 2866 1881 
L 2388 3150 
Q 2169 3728 2063 4100 
Q 1975 3659 1816 3225 
L 1313 1881 
z
" transform="scale(0.015625)"/>
       <path id="ArialMT-6c" d="M 409 0 
L 409 4581 
L 972 4581 
L 972 0 
L 409 0 
z
" transform="scale(0.015625)"/>
       <path id="ArialMT-6f" d="M 213 1659 
Q 213 2581 725 3025 
Q 1153 3394 1769 3394 
Q 2453 3394 2887 2945 
Q 3322 2497 3322 1706 
Q 3322 1066 3130 698 
Q 2938 331 2570 128 
Q 2203 -75 1769 -75 
Q 1072 -75 642 372 
Q 213 819 213 1659 
z
M 791 1659 
Q 791 1022 1069 705 
Q 1347 388 1769 388 
Q 2188 388 2466 706 
Q 2744 1025 2744 1678 
Q 2744 2294 2464 2611 
Q 2184 2928 1769 2928 
Q 1347 2928 1069 2612 
Q 791 2297 791 1659 
z
" transform="scale(0.015625)"/>
      </defs>
      <use xlink:href="#ArialMT-41"/>
      <use xlink:href="#ArialMT-6c" x="66.699219"/>
      <use xlink:href="#ArialMT-67" x="88.916016"/>
      <use xlink:href="#ArialMT-6f" x="144.53125"/>
      <use xlink:href="#ArialMT-72" x="200.146484"/>
      <use xlink:href="#ArialMT-69" x="233.447266"/>
      <use xlink:href="#ArialMT-74" x="255.664062"/>
      <use xlink:href="#ArialMT-68" x="283.447266"/>
      <use xlink:href="#ArialMT-6d" x="339.0625"/>
     </g>
    </g>
    <g id="line2d_39">
     <path d="M 183.5075 178.143375 
L 193.5075 178.143375 
L 203.5075 178.143375 
" style="fill: none; stroke: #1f77b4; stroke-width: 1.5; stroke-linecap: round"/>
     <defs>
      <path id="mcfc8e133a8" d="M 0 3 
C 0.795609 3 1.55874 2.683901 2.12132 2.12132 
C 2.683901 1.55874 3 0.795609 3 0 
C 3 -0.795609 2.683901 -1.55874 2.12132 -2.12132 
C 1.55874 -2.683901 0.795609 -3 0 -3 
C -0.795609 -3 -1.55874 -2.683901 -2.12132 -2.12132 
C -2.683901 -1.55874 -3 -0.795609 -3 0 
C -3 0.795609 -2.683901 1.55874 -2.12132 2.12132 
C -1.55874 2.683901 -0.795609 3 0 3 
z
" style="stroke: #1f77b4"/>
     </defs>
     <g>
      <use xlink:href="#mcfc8e133a8" x="193.5075" y="178.143375" style="fill: #1f77b4; stroke: #1f77b4"/>
     </g>
    </g>
    <g id="text_19">
     <!-- STreeD (None) -->
     <g style="fill: #262626" transform="translate(211.5075 181.643375) scale(0.1 -0.1)">
      <defs>
       <path id="ArialMT-53" d="M 288 1472 
L 859 1522 
Q 900 1178 1048 958 
Q 1197 738 1509 602 
Q 1822 466 2213 466 
Q 2559 466 2825 569 
Q 3091 672 3220 851 
Q 3350 1031 3350 1244 
Q 3350 1459 3225 1620 
Q 3100 1781 2813 1891 
Q 2628 1963 1997 2114 
Q 1366 2266 1113 2400 
Q 784 2572 623 2826 
Q 463 3081 463 3397 
Q 463 3744 659 4045 
Q 856 4347 1234 4503 
Q 1613 4659 2075 4659 
Q 2584 4659 2973 4495 
Q 3363 4331 3572 4012 
Q 3781 3694 3797 3291 
L 3216 3247 
Q 3169 3681 2898 3903 
Q 2628 4125 2100 4125 
Q 1550 4125 1298 3923 
Q 1047 3722 1047 3438 
Q 1047 3191 1225 3031 
Q 1400 2872 2139 2705 
Q 2878 2538 3153 2413 
Q 3553 2228 3743 1945 
Q 3934 1663 3934 1294 
Q 3934 928 3725 604 
Q 3516 281 3123 101 
Q 2731 -78 2241 -78 
Q 1619 -78 1198 103 
Q 778 284 539 648 
Q 300 1013 288 1472 
z
" transform="scale(0.015625)"/>
       <path id="ArialMT-4e" d="M 488 0 
L 488 4581 
L 1109 4581 
L 3516 984 
L 3516 4581 
L 4097 4581 
L 4097 0 
L 3475 0 
L 1069 3600 
L 1069 0 
L 488 0 
z
" transform="scale(0.015625)"/>
      </defs>
      <use xlink:href="#ArialMT-53"/>
      <use xlink:href="#ArialMT-54" x="66.699219"/>
      <use xlink:href="#ArialMT-72" x="124.033203"/>
      <use xlink:href="#ArialMT-65" x="157.333984"/>
      <use xlink:href="#ArialMT-65" x="212.949219"/>
      <use xlink:href="#ArialMT-44" x="268.564453"/>
      <use xlink:href="#ArialMT-20" x="340.78125"/>
      <use xlink:href="#ArialMT-28" x="368.564453"/>
      <use xlink:href="#ArialMT-4e" x="401.865234"/>
      <use xlink:href="#ArialMT-6f" x="474.082031"/>
      <use xlink:href="#ArialMT-6e" x="529.697266"/>
      <use xlink:href="#ArialMT-65" x="585.3125"/>
      <use xlink:href="#ArialMT-29" x="640.927734"/>
     </g>
    </g>
    <g id="line2d_40">
     <path d="M 183.5075 192.52775 
L 193.5075 192.52775 
L 203.5075 192.52775 
" style="fill: none; stroke-dasharray: 6,2.25; stroke-dashoffset: 0; stroke: #ff7f0e; stroke-width: 1.5"/>
     <defs>
      <path id="m9155aa8347" d="M -1.5 3 
L 0 1.5 
L 1.5 3 
L 3 1.5 
L 1.5 0 
L 3 -1.5 
L 1.5 -3 
L 0 -1.5 
L -1.5 -3 
L -3 -1.5 
L -1.5 0 
L -3 1.5 
z
" style="stroke: #ff7f0e; stroke-linejoin: miter"/>
     </defs>
     <g>
      <use xlink:href="#m9155aa8347" x="193.5075" y="192.52775" style="fill: #ff7f0e; stroke: #ff7f0e; stroke-linejoin: miter"/>
     </g>
    </g>
    <g id="text_20">
     <!-- STreeD (k-Means Equiv. Points + Similarity) -->
     <g style="fill: #262626" transform="translate(211.5075 196.02775) scale(0.1 -0.1)">
      <defs>
       <path id="ArialMT-6b" d="M 425 0 
L 425 4581 
L 988 4581 
L 988 1969 
L 2319 3319 
L 3047 3319 
L 1778 2088 
L 3175 0 
L 2481 0 
L 1384 1697 
L 988 1316 
L 988 0 
L 425 0 
z
" transform="scale(0.015625)"/>
       <path id="ArialMT-2d" d="M 203 1375 
L 203 1941 
L 1931 1941 
L 1931 1375 
L 203 1375 
z
" transform="scale(0.015625)"/>
       <path id="ArialMT-4d" d="M 475 0 
L 475 4581 
L 1388 4581 
L 2472 1338 
Q 2622 884 2691 659 
Q 2769 909 2934 1394 
L 4031 4581 
L 4847 4581 
L 4847 0 
L 4263 0 
L 4263 3834 
L 2931 0 
L 2384 0 
L 1059 3900 
L 1059 0 
L 475 0 
z
" transform="scale(0.015625)"/>
       <path id="ArialMT-45" d="M 506 0 
L 506 4581 
L 3819 4581 
L 3819 4041 
L 1113 4041 
L 1113 2638 
L 3647 2638 
L 3647 2100 
L 1113 2100 
L 1113 541 
L 3925 541 
L 3925 0 
L 506 0 
z
" transform="scale(0.015625)"/>
       <path id="ArialMT-71" d="M 2538 -1272 
L 2538 353 
Q 2406 169 2170 47 
Q 1934 -75 1669 -75 
Q 1078 -75 651 397 
Q 225 869 225 1691 
Q 225 2191 398 2587 
Q 572 2984 901 3189 
Q 1231 3394 1625 3394 
Q 2241 3394 2594 2875 
L 2594 3319 
L 3100 3319 
L 3100 -1272 
L 2538 -1272 
z
M 803 1669 
Q 803 1028 1072 708 
Q 1341 388 1716 388 
Q 2075 388 2334 692 
Q 2594 997 2594 1619 
Q 2594 2281 2320 2615 
Q 2047 2950 1678 2950 
Q 1313 2950 1058 2639 
Q 803 2328 803 1669 
z
" transform="scale(0.015625)"/>
       <path id="ArialMT-75" d="M 2597 0 
L 2597 488 
Q 2209 -75 1544 -75 
Q 1250 -75 995 37 
Q 741 150 617 320 
Q 494 491 444 738 
Q 409 903 409 1263 
L 409 3319 
L 972 3319 
L 972 1478 
Q 972 1038 1006 884 
Q 1059 663 1231 536 
Q 1403 409 1656 409 
Q 1909 409 2131 539 
Q 2353 669 2445 892 
Q 2538 1116 2538 1541 
L 2538 3319 
L 3100 3319 
L 3100 0 
L 2597 0 
z
" transform="scale(0.015625)"/>
       <path id="ArialMT-76" d="M 1344 0 
L 81 3319 
L 675 3319 
L 1388 1331 
Q 1503 1009 1600 663 
Q 1675 925 1809 1294 
L 2547 3319 
L 3125 3319 
L 1869 0 
L 1344 0 
z
" transform="scale(0.015625)"/>
       <path id="ArialMT-2e" d="M 581 0 
L 581 641 
L 1222 641 
L 1222 0 
L 581 0 
z
" transform="scale(0.015625)"/>
       <path id="ArialMT-50" d="M 494 0 
L 494 4581 
L 2222 4581 
Q 2678 4581 2919 4538 
Q 3256 4481 3484 4323 
Q 3713 4166 3852 3881 
Q 3991 3597 3991 3256 
Q 3991 2672 3619 2267 
Q 3247 1863 2275 1863 
L 1100 1863 
L 1100 0 
L 494 0 
z
M 1100 2403 
L 2284 2403 
Q 2872 2403 3119 2622 
Q 3366 2841 3366 3238 
Q 3366 3525 3220 3729 
Q 3075 3934 2838 4000 
Q 2684 4041 2272 4041 
L 1100 4041 
L 1100 2403 
z
" transform="scale(0.015625)"/>
       <path id="ArialMT-2b" d="M 1603 741 
L 1603 1997 
L 356 1997 
L 356 2522 
L 1603 2522 
L 1603 3769 
L 2134 3769 
L 2134 2522 
L 3381 2522 
L 3381 1997 
L 2134 1997 
L 2134 741 
L 1603 741 
z
" transform="scale(0.015625)"/>
       <path id="ArialMT-79" d="M 397 -1278 
L 334 -750 
Q 519 -800 656 -800 
Q 844 -800 956 -737 
Q 1069 -675 1141 -563 
Q 1194 -478 1313 -144 
Q 1328 -97 1363 -6 
L 103 3319 
L 709 3319 
L 1400 1397 
Q 1534 1031 1641 628 
Q 1738 1016 1872 1384 
L 2581 3319 
L 3144 3319 
L 1881 -56 
Q 1678 -603 1566 -809 
Q 1416 -1088 1222 -1217 
Q 1028 -1347 759 -1347 
Q 597 -1347 397 -1278 
z
" transform="scale(0.015625)"/>
      </defs>
      <use xlink:href="#ArialMT-53"/>
      <use xlink:href="#ArialMT-54" x="66.699219"/>
      <use xlink:href="#ArialMT-72" x="124.033203"/>
      <use xlink:href="#ArialMT-65" x="157.333984"/>
      <use xlink:href="#ArialMT-65" x="212.949219"/>
      <use xlink:href="#ArialMT-44" x="268.564453"/>
      <use xlink:href="#ArialMT-20" x="340.78125"/>
      <use xlink:href="#ArialMT-28" x="368.564453"/>
      <use xlink:href="#ArialMT-6b" x="401.865234"/>
      <use xlink:href="#ArialMT-2d" x="451.865234"/>
      <use xlink:href="#ArialMT-4d" x="485.166016"/>
      <use xlink:href="#ArialMT-65" x="568.466797"/>
      <use xlink:href="#ArialMT-61" x="624.082031"/>
      <use xlink:href="#ArialMT-6e" x="679.697266"/>
      <use xlink:href="#ArialMT-73" x="735.3125"/>
      <use xlink:href="#ArialMT-20" x="785.3125"/>
      <use xlink:href="#ArialMT-45" x="813.095703"/>
      <use xlink:href="#ArialMT-71" x="879.794922"/>
      <use xlink:href="#ArialMT-75" x="935.410156"/>
      <use xlink:href="#ArialMT-69" x="991.025391"/>
      <use xlink:href="#ArialMT-76" x="1013.242188"/>
      <use xlink:href="#ArialMT-2e" x="1055.867188"/>
      <use xlink:href="#ArialMT-20" x="1083.650391"/>
      <use xlink:href="#ArialMT-50" x="1111.433594"/>
      <use xlink:href="#ArialMT-6f" x="1178.132812"/>
      <use xlink:href="#ArialMT-69" x="1233.748047"/>
      <use xlink:href="#ArialMT-6e" x="1255.964844"/>
      <use xlink:href="#ArialMT-74" x="1311.580078"/>
      <use xlink:href="#ArialMT-73" x="1339.363281"/>
      <use xlink:href="#ArialMT-20" x="1389.363281"/>
      <use xlink:href="#ArialMT-2b" x="1417.146484"/>
      <use xlink:href="#ArialMT-20" x="1475.544922"/>
      <use xlink:href="#ArialMT-53" x="1503.328125"/>
      <use xlink:href="#ArialMT-69" x="1570.027344"/>
      <use xlink:href="#ArialMT-6d" x="1592.244141"/>
      <use xlink:href="#ArialMT-69" x="1675.544922"/>
      <use xlink:href="#ArialMT-6c" x="1697.761719"/>
      <use xlink:href="#ArialMT-61" x="1719.978516"/>
      <use xlink:href="#ArialMT-72" x="1775.59375"/>
      <use xlink:href="#ArialMT-69" x="1808.894531"/>
      <use xlink:href="#ArialMT-74" x="1831.111328"/>
      <use xlink:href="#ArialMT-79" x="1858.894531"/>
      <use xlink:href="#ArialMT-29" x="1908.894531"/>
     </g>
    </g>
    <g id="line2d_41">
     <path d="M 183.5075 206.912125 
L 193.5075 206.912125 
L 203.5075 206.912125 
" style="fill: none; stroke-dasharray: 1.5,1.5; stroke-dashoffset: 0; stroke: #2ca02c; stroke-width: 1.5"/>
     <defs>
      <path id="m1acf3dbc58" d="M -2.12132 -2.12132 
L -2.12132 2.12132 
L 2.12132 2.12132 
L 2.12132 -2.12132 
z
" style="stroke: #2ca02c; stroke-linejoin: miter"/>
     </defs>
     <g>
      <use xlink:href="#m1acf3dbc58" x="193.5075" y="206.912125" style="fill: #2ca02c; stroke: #2ca02c; stroke-linejoin: miter"/>
     </g>
    </g>
    <g id="text_21">
     <!-- STreeD (Equivalent Points + Similarity) -->
     <g style="fill: #262626" transform="translate(211.5075 210.412125) scale(0.1 -0.1)">
      <use xlink:href="#ArialMT-53"/>
      <use xlink:href="#ArialMT-54" x="66.699219"/>
      <use xlink:href="#ArialMT-72" x="124.033203"/>
      <use xlink:href="#ArialMT-65" x="157.333984"/>
      <use xlink:href="#ArialMT-65" x="212.949219"/>
      <use xlink:href="#ArialMT-44" x="268.564453"/>
      <use xlink:href="#ArialMT-20" x="340.78125"/>
      <use xlink:href="#ArialMT-28" x="368.564453"/>
      <use xlink:href="#ArialMT-45" x="401.865234"/>
      <use xlink:href="#ArialMT-71" x="468.564453"/>
      <use xlink:href="#ArialMT-75" x="524.179688"/>
      <use xlink:href="#ArialMT-69" x="579.794922"/>
      <use xlink:href="#ArialMT-76" x="602.011719"/>
      <use xlink:href="#ArialMT-61" x="652.011719"/>
      <use xlink:href="#ArialMT-6c" x="707.626953"/>
      <use xlink:href="#ArialMT-65" x="729.84375"/>
      <use xlink:href="#ArialMT-6e" x="785.458984"/>
      <use xlink:href="#ArialMT-74" x="841.074219"/>
      <use xlink:href="#ArialMT-20" x="868.857422"/>
      <use xlink:href="#ArialMT-50" x="896.640625"/>
      <use xlink:href="#ArialMT-6f" x="963.339844"/>
      <use xlink:href="#ArialMT-69" x="1018.955078"/>
      <use xlink:href="#ArialMT-6e" x="1041.171875"/>
      <use xlink:href="#ArialMT-74" x="1096.787109"/>
      <use xlink:href="#ArialMT-73" x="1124.570312"/>
      <use xlink:href="#ArialMT-20" x="1174.570312"/>
      <use xlink:href="#ArialMT-2b" x="1202.353516"/>
      <use xlink:href="#ArialMT-20" x="1260.751953"/>
      <use xlink:href="#ArialMT-53" x="1288.535156"/>
      <use xlink:href="#ArialMT-69" x="1355.234375"/>
      <use xlink:href="#ArialMT-6d" x="1377.451172"/>
      <use xlink:href="#ArialMT-69" x="1460.751953"/>
      <use xlink:href="#ArialMT-6c" x="1482.96875"/>
      <use xlink:href="#ArialMT-61" x="1505.185547"/>
      <use xlink:href="#ArialMT-72" x="1560.800781"/>
      <use xlink:href="#ArialMT-69" x="1594.101562"/>
      <use xlink:href="#ArialMT-74" x="1616.318359"/>
      <use xlink:href="#ArialMT-79" x="1644.101562"/>
      <use xlink:href="#ArialMT-29" x="1694.101562"/>
     </g>
    </g>
    <g id="line2d_42">
     <path d="M 183.5075 221.2965 
L 193.5075 221.2965 
L 203.5075 221.2965 
" style="fill: none; stroke-dasharray: 4.5,1.875,2.25,1.875; stroke-dashoffset: 0; stroke: #d62728; stroke-width: 1.5"/>
     <defs>
      <path id="mf08c856150" d="M -1 3 
L 1 3 
L 1 1 
L 3 1 
L 3 -1 
L 1 -1 
L 1 -3 
L -1 -3 
L -1 -1 
L -3 -1 
L -3 1 
L -1 1 
z
" style="stroke: #d62728; stroke-linejoin: miter"/>
     </defs>
     <g>
      <use xlink:href="#mf08c856150" x="193.5075" y="221.2965" style="fill: #d62728; stroke: #d62728; stroke-linejoin: miter"/>
     </g>
    </g>
    <g id="text_22">
     <!-- STreeD (Similarity) -->
     <g style="fill: #262626" transform="translate(211.5075 224.7965) scale(0.1 -0.1)">
      <use xlink:href="#ArialMT-53"/>
      <use xlink:href="#ArialMT-54" x="66.699219"/>
      <use xlink:href="#ArialMT-72" x="124.033203"/>
      <use xlink:href="#ArialMT-65" x="157.333984"/>
      <use xlink:href="#ArialMT-65" x="212.949219"/>
      <use xlink:href="#ArialMT-44" x="268.564453"/>
      <use xlink:href="#ArialMT-20" x="340.78125"/>
      <use xlink:href="#ArialMT-28" x="368.564453"/>
      <use xlink:href="#ArialMT-53" x="401.865234"/>
      <use xlink:href="#ArialMT-69" x="468.564453"/>
      <use xlink:href="#ArialMT-6d" x="490.78125"/>
      <use xlink:href="#ArialMT-69" x="574.082031"/>
      <use xlink:href="#ArialMT-6c" x="596.298828"/>
      <use xlink:href="#ArialMT-61" x="618.515625"/>
      <use xlink:href="#ArialMT-72" x="674.130859"/>
      <use xlink:href="#ArialMT-69" x="707.431641"/>
      <use xlink:href="#ArialMT-74" x="729.648438"/>
      <use xlink:href="#ArialMT-79" x="757.431641"/>
      <use xlink:href="#ArialMT-29" x="807.431641"/>
     </g>
    </g>
    <g id="line2d_43">
     <path d="M 183.5075 235.559 
L 193.5075 235.559 
L 203.5075 235.559 
" style="fill: none; stroke-dasharray: 7.5,1.5,1.5,1.5; stroke-dashoffset: 0; stroke: #9467bd; stroke-width: 1.5"/>
     <defs>
      <path id="md5ac7f96d3" d="M 0 -3 
L -3 -0 
L -0 3 
L 3 0 
z
" style="stroke: #9467bd; stroke-linejoin: miter"/>
     </defs>
     <g>
      <use xlink:href="#md5ac7f96d3" x="193.5075" y="235.559" style="fill: #9467bd; stroke: #9467bd; stroke-linejoin: miter"/>
     </g>
    </g>
    <g id="text_23">
     <!-- OSRT -->
     <g style="fill: #262626" transform="translate(211.5075 239.059) scale(0.1 -0.1)">
      <defs>
       <path id="ArialMT-4f" d="M 309 2231 
Q 309 3372 921 4017 
Q 1534 4663 2503 4663 
Q 3138 4663 3647 4359 
Q 4156 4056 4423 3514 
Q 4691 2972 4691 2284 
Q 4691 1588 4409 1038 
Q 4128 488 3612 205 
Q 3097 -78 2500 -78 
Q 1853 -78 1343 234 
Q 834 547 571 1087 
Q 309 1628 309 2231 
z
M 934 2222 
Q 934 1394 1379 917 
Q 1825 441 2497 441 
Q 3181 441 3623 922 
Q 4066 1403 4066 2288 
Q 4066 2847 3877 3264 
Q 3688 3681 3323 3911 
Q 2959 4141 2506 4141 
Q 1863 4141 1398 3698 
Q 934 3256 934 2222 
z
" transform="scale(0.015625)"/>
       <path id="ArialMT-52" d="M 503 0 
L 503 4581 
L 2534 4581 
Q 3147 4581 3465 4457 
Q 3784 4334 3975 4021 
Q 4166 3709 4166 3331 
Q 4166 2844 3850 2509 
Q 3534 2175 2875 2084 
Q 3116 1969 3241 1856 
Q 3506 1613 3744 1247 
L 4541 0 
L 3778 0 
L 3172 953 
Q 2906 1366 2734 1584 
Q 2563 1803 2427 1890 
Q 2291 1978 2150 2013 
Q 2047 2034 1813 2034 
L 1109 2034 
L 1109 0 
L 503 0 
z
M 1109 2559 
L 2413 2559 
Q 2828 2559 3062 2645 
Q 3297 2731 3419 2920 
Q 3541 3109 3541 3331 
Q 3541 3656 3305 3865 
Q 3069 4075 2559 4075 
L 1109 4075 
L 1109 2559 
z
" transform="scale(0.015625)"/>
      </defs>
      <use xlink:href="#ArialMT-4f"/>
      <use xlink:href="#ArialMT-53" x="77.783203"/>
      <use xlink:href="#ArialMT-52" x="144.482422"/>
      <use xlink:href="#ArialMT-54" x="214.949219"/>
     </g>
    </g>
    <g id="text_24">
     <!-- Complexity cost -->
     <g style="fill: #262626" transform="translate(191.5075 253.326187) scale(0.1 -0.1)">
      <defs>
       <path id="ArialMT-43" d="M 3763 1606 
L 4369 1453 
Q 4178 706 3683 314 
Q 3188 -78 2472 -78 
Q 1731 -78 1267 223 
Q 803 525 561 1097 
Q 319 1669 319 2325 
Q 319 3041 592 3573 
Q 866 4106 1370 4382 
Q 1875 4659 2481 4659 
Q 3169 4659 3637 4309 
Q 4106 3959 4291 3325 
L 3694 3184 
Q 3534 3684 3231 3912 
Q 2928 4141 2469 4141 
Q 1941 4141 1586 3887 
Q 1231 3634 1087 3207 
Q 944 2781 944 2328 
Q 944 1744 1114 1308 
Q 1284 872 1643 656 
Q 2003 441 2422 441 
Q 2931 441 3284 734 
Q 3638 1028 3763 1606 
z
" transform="scale(0.015625)"/>
       <path id="ArialMT-78" d="M 47 0 
L 1259 1725 
L 138 3319 
L 841 3319 
L 1350 2541 
Q 1494 2319 1581 2169 
Q 1719 2375 1834 2534 
L 2394 3319 
L 3066 3319 
L 1919 1756 
L 3153 0 
L 2463 0 
L 1781 1031 
L 1600 1309 
L 728 0 
L 47 0 
z
" transform="scale(0.015625)"/>
       <path id="ArialMT-63" d="M 2588 1216 
L 3141 1144 
Q 3050 572 2676 248 
Q 2303 -75 1759 -75 
Q 1078 -75 664 370 
Q 250 816 250 1647 
Q 250 2184 428 2587 
Q 606 2991 970 3192 
Q 1334 3394 1763 3394 
Q 2303 3394 2647 3120 
Q 2991 2847 3088 2344 
L 2541 2259 
Q 2463 2594 2264 2762 
Q 2066 2931 1784 2931 
Q 1359 2931 1093 2626 
Q 828 2322 828 1663 
Q 828 994 1084 691 
Q 1341 388 1753 388 
Q 2084 388 2306 591 
Q 2528 794 2588 1216 
z
" transform="scale(0.015625)"/>
      </defs>
      <use xlink:href="#ArialMT-43"/>
      <use xlink:href="#ArialMT-6f" x="72.216797"/>
      <use xlink:href="#ArialMT-6d" x="127.832031"/>
      <use xlink:href="#ArialMT-70" x="211.132812"/>
      <use xlink:href="#ArialMT-6c" x="266.748047"/>
      <use xlink:href="#ArialMT-65" x="288.964844"/>
      <use xlink:href="#ArialMT-78" x="344.580078"/>
      <use xlink:href="#ArialMT-69" x="394.580078"/>
      <use xlink:href="#ArialMT-74" x="416.796875"/>
      <use xlink:href="#ArialMT-79" x="444.580078"/>
      <use xlink:href="#ArialMT-20" x="494.580078"/>
      <use xlink:href="#ArialMT-63" x="522.363281"/>
      <use xlink:href="#ArialMT-6f" x="572.363281"/>
      <use xlink:href="#ArialMT-73" x="627.978516"/>
      <use xlink:href="#ArialMT-74" x="677.978516"/>
     </g>
    </g>
    <g id="line2d_44">
     <path d="M 183.5075 264.210562 
L 193.5075 264.210562 
L 203.5075 264.210562 
" style="fill: none; stroke: #333333; stroke-width: 3; stroke-linecap: round"/>
    </g>
    <g id="text_25">
     <!-- (0.01, 0.5] -->
     <g style="fill: #262626" transform="translate(211.5075 267.710562) scale(0.1 -0.1)">
      <defs>
       <path id="ArialMT-2c" d="M 569 0 
L 569 641 
L 1209 641 
L 1209 0 
Q 1209 -353 1084 -570 
Q 959 -788 688 -906 
L 531 -666 
Q 709 -588 793 -436 
Q 878 -284 888 0 
L 569 0 
z
" transform="scale(0.015625)"/>
       <path id="ArialMT-5d" d="M 1363 -1272 
L 122 -1272 
L 122 -806 
L 800 -806 
L 800 4116 
L 122 4116 
L 122 4581 
L 1363 4581 
L 1363 -1272 
z
" transform="scale(0.015625)"/>
      </defs>
      <use xlink:href="#ArialMT-28"/>
      <use xlink:href="#ArialMT-30" x="33.300781"/>
      <use xlink:href="#ArialMT-2e" x="88.916016"/>
      <use xlink:href="#ArialMT-30" x="116.699219"/>
      <use xlink:href="#ArialMT-31" x="172.314453"/>
      <use xlink:href="#ArialMT-2c" x="227.929688"/>
      <use xlink:href="#ArialMT-20" x="255.712891"/>
      <use xlink:href="#ArialMT-30" x="283.496094"/>
      <use xlink:href="#ArialMT-2e" x="339.111328"/>
      <use xlink:href="#ArialMT-35" x="366.894531"/>
      <use xlink:href="#ArialMT-5d" x="422.509766"/>
     </g>
    </g>
    <g id="line2d_45">
     <path d="M 183.5075 278.594937 
L 193.5075 278.594937 
L 203.5075 278.594937 
" style="fill: none; stroke: #333333; stroke-width: 1.875; stroke-linecap: round"/>
    </g>
    <g id="text_26">
     <!-- (0.003, 0.01] -->
     <g style="fill: #262626" transform="translate(211.5075 282.094937) scale(0.1 -0.1)">
      <use xlink:href="#ArialMT-28"/>
      <use xlink:href="#ArialMT-30" x="33.300781"/>
      <use xlink:href="#ArialMT-2e" x="88.916016"/>
      <use xlink:href="#ArialMT-30" x="116.699219"/>
      <use xlink:href="#ArialMT-30" x="172.314453"/>
      <use xlink:href="#ArialMT-33" x="227.929688"/>
      <use xlink:href="#ArialMT-2c" x="283.544922"/>
      <use xlink:href="#ArialMT-20" x="311.328125"/>
      <use xlink:href="#ArialMT-30" x="339.111328"/>
      <use xlink:href="#ArialMT-2e" x="394.726562"/>
      <use xlink:href="#ArialMT-30" x="422.509766"/>
      <use xlink:href="#ArialMT-31" x="478.125"/>
      <use xlink:href="#ArialMT-5d" x="533.740234"/>
     </g>
    </g>
    <g id="line2d_46">
     <path d="M 183.5075 292.979312 
L 193.5075 292.979312 
L 203.5075 292.979312 
" style="fill: none; stroke: #333333; stroke-width: 0.75; stroke-linecap: round"/>
    </g>
    <g id="text_27">
     <!-- (0.0, 0.003] -->
     <g style="fill: #262626" transform="translate(211.5075 296.479312) scale(0.1 -0.1)">
      <use xlink:href="#ArialMT-28"/>
      <use xlink:href="#ArialMT-30" x="33.300781"/>
      <use xlink:href="#ArialMT-2e" x="88.916016"/>
      <use xlink:href="#ArialMT-30" x="116.699219"/>
      <use xlink:href="#ArialMT-2c" x="172.314453"/>
      <use xlink:href="#ArialMT-20" x="200.097656"/>
      <use xlink:href="#ArialMT-30" x="227.880859"/>
      <use xlink:href="#ArialMT-2e" x="283.496094"/>
      <use xlink:href="#ArialMT-30" x="311.279297"/>
      <use xlink:href="#ArialMT-30" x="366.894531"/>
      <use xlink:href="#ArialMT-33" x="422.509766"/>
      <use xlink:href="#ArialMT-5d" x="478.125"/>
     </g>
    </g>
   </g>
  </g>
 </g>
 <defs>
  <clipPath id="p4095605774">
   <rect x="57.6" y="41.472" width="357.12" height="266.112"/>
  </clipPath>
 </defs>
</svg>
